<?xml version="1.0" encoding="UTF-8" standalone="no"?>
<!DOCTYPE svg PUBLIC "-//W3C//DTD SVG 1.1//EN"
 "http://www.w3.org/Graphics/SVG/1.1/DTD/svg11.dtd">
<!-- Generated by graphviz version 12.2.1 (20241206.2353)
 -->
<!-- Title: dependency&#45;cruiser output Pages: 1 -->
<svg width="812pt" height="324pt"
 viewBox="0.00 0.00 812.00 324.00" xmlns="http://www.w3.org/2000/svg" xmlns:xlink="http://www.w3.org/1999/xlink">
<g id="graph0" class="graph" transform="scale(1 1) rotate(0) translate(4 320)">
<title>dependency&#45;cruiser output</title>
<polygon fill="white" stroke="none" points="-4,4 -4,-320 808,-320 808,4 -4,4"/>
<g id="clust1" class="cluster">
<title>cluster_src</title>
<path fill="#ffffff" stroke="black" stroke-width="2" d="M20,-8C20,-8 784,-8 784,-8 790,-8 796,-14 796,-20 796,-20 796,-296 796,-296 796,-302 790,-308 784,-308 784,-308 20,-308 20,-308 14,-308 8,-302 8,-296 8,-296 8,-20 8,-20 8,-14 14,-8 20,-8"/>
<text text-anchor="middle" x="402" y="-295.45" font-family="Helvetica,sans-Serif" font-weight="bold" font-size="9.00">src</text>
</g>
<g id="clust2" class="cluster">
<title>cluster_src/app</title>
<path fill="#ffffff" stroke="black" stroke-width="2" d="M143.62,-140C143.62,-140 424.12,-140 424.12,-140 430.12,-140 436.12,-146 436.12,-152 436.12,-152 436.12,-244 436.12,-244 436.12,-250 430.12,-256 424.12,-256 424.12,-256 143.62,-256 143.62,-256 137.62,-256 131.62,-250 131.62,-244 131.62,-244 131.62,-152 131.62,-152 131.62,-146 137.62,-140 143.62,-140"/>
<text text-anchor="middle" x="283.88" y="-243.45" font-family="Helvetica,sans-Serif" font-weight="bold" font-size="9.00">app</text>
</g>
<g id="clust3" class="cluster">
<title>cluster_src/app/context</title>
<path fill="#ffffff" stroke="black" stroke-width="2" d="M237.25,-148C237.25,-148 416.12,-148 416.12,-148 422.12,-148 428.12,-154 428.12,-160 428.12,-160 428.12,-218 428.12,-218 428.12,-224 422.12,-230 416.12,-230 416.12,-230 237.25,-230 237.25,-230 231.25,-230 225.25,-224 225.25,-218 225.25,-218 225.25,-160 225.25,-160 225.25,-154 231.25,-148 237.25,-148"/>
<text text-anchor="middle" x="326.69" y="-217.45" font-family="Helvetica,sans-Serif" font-weight="bold" font-size="9.00">context</text>
</g>
<g id="clust4" class="cluster">
<title>cluster_src/domain</title>
<path fill="#ffffff" stroke="black" stroke-width="2" d="M456.12,-140C456.12,-140 776,-140 776,-140 782,-140 788,-146 788,-152 788,-152 788,-224 788,-224 788,-230 782,-236 776,-236 776,-236 456.12,-236 456.12,-236 450.12,-236 444.12,-230 444.12,-224 444.12,-224 444.12,-152 444.12,-152 444.12,-146 450.12,-140 456.12,-140"/>
<text text-anchor="middle" x="616.06" y="-223.45" font-family="Helvetica,sans-Serif" font-weight="bold" font-size="9.00">domain</text>
</g>
<g id="clust5" class="cluster">
<title>cluster_src/domain/models</title>
<path fill="#ffffff" stroke="black" stroke-width="2" d="M722,-148C722,-148 768,-148 768,-148 774,-148 780,-154 780,-160 780,-160 780,-188 780,-188 780,-194 774,-200 768,-200 768,-200 722,-200 722,-200 716,-200 710,-194 710,-188 710,-188 710,-160 710,-160 710,-154 716,-148 722,-148"/>
<text text-anchor="middle" x="745" y="-187.45" font-family="Helvetica,sans-Serif" font-weight="bold" font-size="9.00">models</text>
</g>
<g id="clust6" class="cluster">
<title>cluster_src/domain/ports</title>
<path fill="#ffffff" stroke="black" stroke-width="2" d="M610,-148C610,-148 690,-148 690,-148 696,-148 702,-154 702,-160 702,-160 702,-188 702,-188 702,-194 696,-200 690,-200 690,-200 610,-200 610,-200 604,-200 598,-194 598,-188 598,-188 598,-160 598,-160 598,-154 604,-148 610,-148"/>
<text text-anchor="middle" x="650" y="-187.45" font-family="Helvetica,sans-Serif" font-weight="bold" font-size="9.00">ports</text>
</g>
<g id="clust7" class="cluster">
<title>cluster_src/domain/usecases</title>
<path fill="#ffffff" stroke="black" stroke-width="2" d="M464.12,-157C464.12,-157 555.38,-157 555.38,-157 561.38,-157 567.38,-163 567.38,-169 567.38,-169 567.38,-197 567.38,-197 567.38,-203 561.38,-209 555.38,-209 555.38,-209 464.12,-209 464.12,-209 458.12,-209 452.12,-203 452.12,-197 452.12,-197 452.12,-169 452.12,-169 452.12,-163 458.12,-157 464.12,-157"/>
<text text-anchor="middle" x="509.75" y="-196.45" font-family="Helvetica,sans-Serif" font-weight="bold" font-size="9.00">usecases</text>
</g>
<g id="clust8" class="cluster">
<title>cluster_src/infrastructure</title>
<path fill="#ffffff" stroke="black" stroke-width="2" d="M343.5,-46C343.5,-46 578,-46 578,-46 584,-46 590,-52 590,-58 590,-58 590,-120 590,-120 590,-126 584,-132 578,-132 578,-132 343.5,-132 343.5,-132 337.5,-132 331.5,-126 331.5,-120 331.5,-120 331.5,-58 331.5,-58 331.5,-52 337.5,-46 343.5,-46"/>
<text text-anchor="middle" x="460.75" y="-119.45" font-family="Helvetica,sans-Serif" font-weight="bold" font-size="9.00">infrastructure</text>
</g>
<g id="clust9" class="cluster">
<title>cluster_src/infrastructure/repositories</title>
<path fill="#ffffff" stroke="black" stroke-width="2" d="M351.5,-54C351.5,-54 570,-54 570,-54 576,-54 582,-60 582,-66 582,-66 582,-94 582,-94 582,-100 576,-106 570,-106 570,-106 351.5,-106 351.5,-106 345.5,-106 339.5,-100 339.5,-94 339.5,-94 339.5,-66 339.5,-66 339.5,-60 345.5,-54 351.5,-54"/>
<text text-anchor="middle" x="460.75" y="-93.45" font-family="Helvetica,sans-Serif" font-weight="bold" font-size="9.00">repositories</text>
</g>
<g id="clust10" class="cluster">
<title>cluster_src/ui</title>
<path fill="#ffffff" stroke="black" stroke-width="2" d="M28,-16C28,-16 205.25,-16 205.25,-16 211.25,-16 217.25,-22 217.25,-28 217.25,-28 217.25,-120 217.25,-120 217.25,-126 211.25,-132 205.25,-132 205.25,-132 28,-132 28,-132 22,-132 16,-126 16,-120 16,-120 16,-28 16,-28 16,-22 22,-16 28,-16"/>
<text text-anchor="middle" x="116.62" y="-119.45" font-family="Helvetica,sans-Serif" font-weight="bold" font-size="9.00">ui</text>
</g>
<g id="clust11" class="cluster">
<title>cluster_src/ui/components</title>
<path fill="#ffffff" stroke="black" stroke-width="2" d="M136,-24C136,-24 197.25,-24 197.25,-24 203.25,-24 209.25,-30 209.25,-36 209.25,-36 209.25,-94 209.25,-94 209.25,-100 203.25,-106 197.25,-106 197.25,-106 136,-106 136,-106 130,-106 124,-100 124,-94 124,-94 124,-36 124,-36 124,-30 130,-24 136,-24"/>
<text text-anchor="middle" x="166.62" y="-93.45" font-family="Helvetica,sans-Serif" font-weight="bold" font-size="9.00">components</text>
</g>
<g id="clust12" class="cluster">
<title>cluster_src/ui/pages</title>
<path fill="#ffffff" stroke="black" stroke-width="2" d="M36,-54C36,-54 104,-54 104,-54 110,-54 116,-60 116,-66 116,-66 116,-94 116,-94 116,-100 110,-106 104,-106 104,-106 36,-106 36,-106 30,-106 24,-100 24,-94 24,-94 24,-66 24,-66 24,-60 30,-54 36,-54"/>
<text text-anchor="middle" x="70" y="-93.45" font-family="Helvetica,sans-Serif" font-weight="bold" font-size="9.00">pages</text>
</g>
<!-- src/app/App.tsx -->
<g id="node1" class="node">
<title>src/app/App.tsx</title>
<g id="a_node1"><a xlink:href="src/app/App.tsx" xlink:title="App.tsx">
<path fill="#bbfeff" stroke="black" d="M187.71,-203.88C187.71,-203.88 145.54,-203.88 145.54,-203.88 142.58,-203.88 139.62,-200.92 139.62,-197.96 139.62,-197.96 139.62,-192.04 139.62,-192.04 139.62,-189.08 142.58,-186.12 145.54,-186.12 145.54,-186.12 187.71,-186.12 187.71,-186.12 190.67,-186.12 193.62,-189.08 193.62,-192.04 193.62,-192.04 193.62,-197.96 193.62,-197.96 193.62,-200.92 190.67,-203.88 187.71,-203.88"/>
<text text-anchor="start" x="151.62" y="-191.32" font-family="Helvetica,sans-Serif" font-size="9.00">App.tsx</text>
</a>
</g>
</g>
<!-- src/ui/pages/HomePage.tsx -->
<g id="node2" class="node">
<title>src/ui/pages/HomePage.tsx</title>
<g id="a_node2"><a xlink:href="src/ui/pages/HomePage.tsx" xlink:title="HomePage.tsx">
<path fill="#bbfeff" stroke="black" d="M102.08,-79.88C102.08,-79.88 37.92,-79.88 37.92,-79.88 34.96,-79.88 32,-76.92 32,-73.96 32,-73.96 32,-68.04 32,-68.04 32,-65.08 34.96,-62.12 37.92,-62.12 37.92,-62.12 102.08,-62.12 102.08,-62.12 105.04,-62.12 108,-65.08 108,-68.04 108,-68.04 108,-73.96 108,-73.96 108,-76.92 105.04,-79.88 102.08,-79.88"/>
<text text-anchor="start" x="40" y="-67.33" font-family="Helvetica,sans-Serif" font-size="9.00">HomePage.tsx</text>
</a>
</g>
</g>
<!-- src/app/App.tsx&#45;&gt;src/ui/pages/HomePage.tsx -->
<g id="edge1" class="edge">
<title>src/app/App.tsx&#45;&gt;src/ui/pages/HomePage.tsx</title>
<path fill="none" stroke="#000000" stroke-width="2" stroke-opacity="0.200000" d="M160.56,-185.65C152.24,-170.07 135.45,-137.65 124,-109 119.67,-98.17 124.37,-92.13 116,-84 115.86,-83.87 115.72,-83.73 115.58,-83.6"/>
<polygon fill="#000000" fill-opacity="0.200000" stroke="#000000" stroke-width="2" stroke-opacity="0.200000" points="117.06,-82.08 110.96,-80.3 114.62,-85.5 117.06,-82.08"/>
</g>
<!-- src/app/context/TaskProvider.tsx -->
<g id="node3" class="node">
<title>src/app/context/TaskProvider.tsx</title>
<g id="a_node3"><a xlink:href="src/app/context/TaskProvider.tsx" xlink:title="TaskProvider.tsx">
<path fill="#bbfeff" stroke="black" d="M313.83,-203.88C313.83,-203.88 242.92,-203.88 242.92,-203.88 239.96,-203.88 237,-200.92 237,-197.96 237,-197.96 237,-192.04 237,-192.04 237,-189.08 239.96,-186.12 242.92,-186.12 242.92,-186.12 313.83,-186.12 313.83,-186.12 316.79,-186.12 319.75,-189.08 319.75,-192.04 319.75,-192.04 319.75,-197.96 319.75,-197.96 319.75,-200.92 316.79,-203.88 313.83,-203.88"/>
<text text-anchor="start" x="245" y="-191.32" font-family="Helvetica,sans-Serif" font-size="9.00">TaskProvider.tsx</text>
</a>
</g>
</g>
<!-- src/app/App.tsx&#45;&gt;src/app/context/TaskProvider.tsx -->
<g id="edge2" class="edge">
<title>src/app/App.tsx&#45;&gt;src/app/context/TaskProvider.tsx</title>
<path fill="none" stroke="#000000" stroke-width="2" stroke-opacity="0.200000" d="M193.91,-195C204.12,-195 216.16,-195 227.87,-195"/>
<polygon fill="#000000" fill-opacity="0.200000" stroke="#000000" stroke-width="2" stroke-opacity="0.200000" points="227.7,-197.1 233.7,-195 227.7,-192.9 227.7,-197.1"/>
</g>
<!-- src/ui/components/TaskList.tsx -->
<g id="node11" class="node">
<title>src/ui/components/TaskList.tsx</title>
<g id="a_node11"><a xlink:href="src/ui/components/TaskList.tsx" xlink:title="TaskList.tsx">
<path fill="#bbfeff" stroke="black" d="M191.96,-49.88C191.96,-49.88 141.29,-49.88 141.29,-49.88 138.33,-49.88 135.38,-46.92 135.38,-43.96 135.38,-43.96 135.38,-38.04 135.38,-38.04 135.38,-35.08 138.33,-32.12 141.29,-32.12 141.29,-32.12 191.96,-32.12 191.96,-32.12 194.92,-32.12 197.88,-35.08 197.88,-38.04 197.88,-38.04 197.88,-43.96 197.88,-43.96 197.88,-46.92 194.92,-49.88 191.96,-49.88"/>
<text text-anchor="start" x="143.38" y="-37.33" font-family="Helvetica,sans-Serif" font-size="9.00">TaskList.tsx</text>
</a>
</g>
</g>
<!-- src/ui/pages/HomePage.tsx&#45;&gt;src/ui/components/TaskList.tsx -->
<g id="edge24" class="edge">
<title>src/ui/pages/HomePage.tsx&#45;&gt;src/ui/components/TaskList.tsx</title>
<path fill="none" stroke="#000000" stroke-width="2" stroke-opacity="0.200000" d="M100.42,-61.67C109.06,-58.93 118.62,-55.9 127.71,-53.02"/>
<polygon fill="#000000" fill-opacity="0.200000" stroke="#000000" stroke-width="2" stroke-opacity="0.200000" points="128.25,-55.05 133.34,-51.24 126.98,-51.05 128.25,-55.05"/>
</g>
<!-- src/ui/components/TaskForm.tsx -->
<g id="node15" class="node">
<title>src/ui/components/TaskForm.tsx</title>
<g id="a_node15"><a xlink:href="src/ui/components/TaskForm.tsx" xlink:title="TaskForm.tsx">
<path fill="#bbfeff" stroke="black" d="M195.33,-79.88C195.33,-79.88 137.92,-79.88 137.92,-79.88 134.96,-79.88 132,-76.92 132,-73.96 132,-73.96 132,-68.04 132,-68.04 132,-65.08 134.96,-62.12 137.92,-62.12 137.92,-62.12 195.33,-62.12 195.33,-62.12 198.29,-62.12 201.25,-65.08 201.25,-68.04 201.25,-68.04 201.25,-73.96 201.25,-73.96 201.25,-76.92 198.29,-79.88 195.33,-79.88"/>
<text text-anchor="start" x="140" y="-67.33" font-family="Helvetica,sans-Serif" font-size="9.00">TaskForm.tsx</text>
</a>
</g>
</g>
<!-- src/ui/pages/HomePage.tsx&#45;&gt;src/ui/components/TaskForm.tsx -->
<g id="edge23" class="edge">
<title>src/ui/pages/HomePage.tsx&#45;&gt;src/ui/components/TaskForm.tsx</title>
<path fill="none" stroke="#000000" stroke-width="2" stroke-opacity="0.200000" d="M108.4,-71C113.06,-71 117.85,-71 122.59,-71"/>
<polygon fill="#000000" fill-opacity="0.200000" stroke="#000000" stroke-width="2" stroke-opacity="0.200000" points="122.54,-73.1 128.54,-71 122.54,-68.9 122.54,-73.1"/>
</g>
<!-- src/app/context/TaskContext.tsx -->
<g id="node4" class="node">
<title>src/app/context/TaskContext.tsx</title>
<g id="a_node4"><a xlink:href="src/app/context/TaskContext.tsx" xlink:title="TaskContext.tsx">
<path fill="#bbfeff" stroke="black" d="M414.21,-181.88C414.21,-181.88 346.29,-181.88 346.29,-181.88 343.33,-181.88 340.38,-178.92 340.38,-175.96 340.38,-175.96 340.38,-170.04 340.38,-170.04 340.38,-167.08 343.33,-164.12 346.29,-164.12 346.29,-164.12 414.21,-164.12 414.21,-164.12 417.17,-164.12 420.12,-167.08 420.12,-170.04 420.12,-170.04 420.12,-175.96 420.12,-175.96 420.12,-178.92 417.17,-181.88 414.21,-181.88"/>
<text text-anchor="start" x="348.38" y="-169.32" font-family="Helvetica,sans-Serif" font-size="9.00">TaskContext.tsx</text>
</a>
</g>
</g>
<!-- src/app/context/TaskProvider.tsx&#45;&gt;src/app/context/TaskContext.tsx -->
<g id="edge6" class="edge">
<title>src/app/context/TaskProvider.tsx&#45;&gt;src/app/context/TaskContext.tsx</title>
<path fill="none" stroke="#000000" stroke-width="2" stroke-opacity="0.200000" d="M320,-186.05C323.7,-185.24 327.48,-184.4 331.24,-183.57"/>
<polygon fill="#000000" fill-opacity="0.200000" stroke="#000000" stroke-width="2" stroke-opacity="0.200000" points="331.59,-185.65 337,-182.31 330.69,-181.55 331.59,-185.65"/>
</g>
<!-- src/domain/usecases/useTaskUsecases.ts -->
<g id="node5" class="node">
<title>src/domain/usecases/useTaskUsecases.ts</title>
<g id="a_node5"><a xlink:href="src/domain/usecases/useTaskUsecases.ts" xlink:title="useTaskUsecases.ts">
<path fill="#ddfeff" stroke="black" d="M553.46,-182.88C553.46,-182.88 466.04,-182.88 466.04,-182.88 463.08,-182.88 460.12,-179.92 460.12,-176.96 460.12,-176.96 460.12,-171.04 460.12,-171.04 460.12,-168.08 463.08,-165.12 466.04,-165.12 466.04,-165.12 553.46,-165.12 553.46,-165.12 556.42,-165.12 559.38,-168.08 559.38,-171.04 559.38,-171.04 559.38,-176.96 559.38,-176.96 559.38,-179.92 556.42,-182.88 553.46,-182.88"/>
<text text-anchor="start" x="468.12" y="-170.32" font-family="Helvetica,sans-Serif" font-size="9.00">useTaskUsecases.ts</text>
</a>
</g>
</g>
<!-- src/app/context/TaskProvider.tsx&#45;&gt;src/domain/usecases/useTaskUsecases.ts -->
<g id="edge4" class="edge">
<title>src/app/context/TaskProvider.tsx&#45;&gt;src/domain/usecases/useTaskUsecases.ts</title>
<path fill="none" stroke="#000000" stroke-width="2" stroke-opacity="0.200000" d="M320.1,-194.81C351.82,-194.26 396.9,-192.63 436.12,-188 442.94,-187.2 450.07,-186.12 457.1,-184.91"/>
<polygon fill="#000000" fill-opacity="0.200000" stroke="#000000" stroke-width="2" stroke-opacity="0.200000" points="457.39,-186.99 462.92,-183.87 456.64,-182.86 457.39,-186.99"/>
</g>
<!-- src/infrastructure/repositories/repository.ts -->
<g id="node6" class="node">
<title>src/infrastructure/repositories/repository.ts</title>
<g id="a_node6"><a xlink:href="src/infrastructure/repositories/repository.ts" xlink:title="repository.ts">
<path fill="#ddfeff" stroke="black" d="M407.08,-79.88C407.08,-79.88 353.42,-79.88 353.42,-79.88 350.46,-79.88 347.5,-76.92 347.5,-73.96 347.5,-73.96 347.5,-68.04 347.5,-68.04 347.5,-65.08 350.46,-62.12 353.42,-62.12 353.42,-62.12 407.08,-62.12 407.08,-62.12 410.04,-62.12 413,-65.08 413,-68.04 413,-68.04 413,-73.96 413,-73.96 413,-76.92 410.04,-79.88 407.08,-79.88"/>
<text text-anchor="start" x="355.5" y="-67.33" font-family="Helvetica,sans-Serif" font-size="9.00">repository.ts</text>
</a>
</g>
</g>
<!-- src/app/context/TaskProvider.tsx&#45;&gt;src/infrastructure/repositories/repository.ts -->
<g id="edge5" class="edge">
<title>src/app/context/TaskProvider.tsx&#45;&gt;src/infrastructure/repositories/repository.ts</title>
<path fill="none" stroke="#000000" stroke-width="2" stroke-opacity="0.200000" d="M316.39,-185.86C319.02,-184.22 321.44,-182.28 323.5,-180 334.19,-168.15 325.3,-159.7 331.5,-145 340.52,-123.6 355.64,-101.55 366.45,-87.15"/>
<polygon fill="#000000" fill-opacity="0.200000" stroke="#000000" stroke-width="2" stroke-opacity="0.200000" points="368.12,-88.43 370.11,-82.39 364.79,-85.87 368.12,-88.43"/>
</g>
<!-- src/app/context/TaskContext.tsx&#45;&gt;src/domain/usecases/useTaskUsecases.ts -->
<g id="edge3" class="edge">
<title>src/app/context/TaskContext.tsx&#45;&gt;src/domain/usecases/useTaskUsecases.ts</title>
<path fill="none" stroke="#000000" stroke-width="2" stroke-opacity="0.200000" d="M420.54,-173.31C430.17,-173.38 440.66,-173.47 450.95,-173.55"/>
<polygon fill="#000000" fill-opacity="0.200000" stroke="#000000" stroke-width="2" stroke-opacity="0.200000" points="450.87,-175.65 456.88,-173.59 450.9,-171.45 450.87,-175.65"/>
</g>
<!-- src/domain/ports/TaskRepository.ts -->
<g id="node9" class="node">
<title>src/domain/ports/TaskRepository.ts</title>
<g id="a_node9"><a xlink:href="src/domain/ports/TaskRepository.ts" xlink:title="TaskRepository.ts">
<path fill="#ddfeff" stroke="black" d="M688.08,-173.88C688.08,-173.88 611.92,-173.88 611.92,-173.88 608.96,-173.88 606,-170.92 606,-167.96 606,-167.96 606,-162.04 606,-162.04 606,-159.08 608.96,-156.12 611.92,-156.12 611.92,-156.12 688.08,-156.12 688.08,-156.12 691.04,-156.12 694,-159.08 694,-162.04 694,-162.04 694,-167.96 694,-167.96 694,-170.92 691.04,-173.88 688.08,-173.88"/>
<text text-anchor="start" x="614" y="-161.32" font-family="Helvetica,sans-Serif" font-size="9.00">TaskRepository.ts</text>
</a>
</g>
</g>
<!-- src/domain/usecases/useTaskUsecases.ts&#45;&gt;src/domain/ports/TaskRepository.ts -->
<g id="edge13" class="edge">
<title>src/domain/usecases/useTaskUsecases.ts&#45;&gt;src/domain/ports/TaskRepository.ts</title>
<path fill="none" stroke="#000000" stroke-width="2" stroke-opacity="0.200000" d="M559.49,-170.83C571.63,-170.04 584.68,-169.19 596.97,-168.39"/>
<polygon fill="#000000" fill-opacity="0.200000" stroke="#000000" stroke-width="2" stroke-opacity="0.200000" points="596.89,-170.5 602.74,-168.01 596.61,-166.31 596.89,-170.5"/>
</g>
<!-- src/domain/models/Task.ts -->
<g id="node12" class="node">
<title>src/domain/models/Task.ts</title>
<g id="a_node12"><a xlink:href="src/domain/models/Task.ts" xlink:title="Task.ts">
<path fill="#ddfeff" stroke="black" d="M766.08,-173.88C766.08,-173.88 723.92,-173.88 723.92,-173.88 720.96,-173.88 718,-170.92 718,-167.96 718,-167.96 718,-162.04 718,-162.04 718,-159.08 720.96,-156.12 723.92,-156.12 723.92,-156.12 766.08,-156.12 766.08,-156.12 769.04,-156.12 772,-159.08 772,-162.04 772,-162.04 772,-167.96 772,-167.96 772,-170.92 769.04,-173.88 766.08,-173.88"/>
<text text-anchor="start" x="731.12" y="-161.32" font-family="Helvetica,sans-Serif" font-size="9.00">Task.ts</text>
</a>
</g>
</g>
<!-- src/domain/usecases/useTaskUsecases.ts&#45;&gt;src/domain/models/Task.ts -->
<g id="edge12" class="edge">
<title>src/domain/usecases/useTaskUsecases.ts&#45;&gt;src/domain/models/Task.ts</title>
<path fill="none" stroke="#000000" stroke-width="2" stroke-opacity="0.200000" d="M530.46,-183.36C565.95,-198.85 642.46,-225.94 702,-203 713.61,-198.53 724.01,-189.19 731.55,-180.89"/>
<polygon fill="#000000" fill-opacity="0.200000" stroke="#000000" stroke-width="2" stroke-opacity="0.200000" points="732.92,-182.52 735.22,-176.59 729.73,-179.79 732.92,-182.52"/>
</g>
<!-- src/infrastructure/repositories/repository.ts&#45;&gt;src/domain/ports/TaskRepository.ts -->
<g id="edge16" class="edge">
<title>src/infrastructure/repositories/repository.ts&#45;&gt;src/domain/ports/TaskRepository.ts</title>
<path fill="none" stroke="#000000" stroke-width="2" stroke-opacity="0.200000" d="M407.9,-80.36C456.62,-97.46 560,-133.75 614.2,-152.78"/>
<polygon fill="#000000" fill-opacity="0.200000" stroke="#000000" stroke-width="2" stroke-opacity="0.200000" points="613.24,-154.67 619.6,-154.68 614.63,-150.71 613.24,-154.67"/>
</g>
<!-- src/infrastructure/repositories/InMemoryTaskRepository.ts -->
<g id="node10" class="node">
<title>src/infrastructure/repositories/InMemoryTaskRepository.ts</title>
<g id="a_node10"><a xlink:href="src/infrastructure/repositories/InMemoryTaskRepository.ts" xlink:title="InMemoryTaskRepository.ts">
<path fill="#ddfeff" stroke="black" d="M568.08,-79.88C568.08,-79.88 451.42,-79.88 451.42,-79.88 448.46,-79.88 445.5,-76.92 445.5,-73.96 445.5,-73.96 445.5,-68.04 445.5,-68.04 445.5,-65.08 448.46,-62.12 451.42,-62.12 451.42,-62.12 568.08,-62.12 568.08,-62.12 571.04,-62.12 574,-65.08 574,-68.04 574,-68.04 574,-73.96 574,-73.96 574,-76.92 571.04,-79.88 568.08,-79.88"/>
<text text-anchor="start" x="453.5" y="-67.33" font-family="Helvetica,sans-Serif" font-size="9.00">InMemoryTaskRepository.ts</text>
</a>
</g>
</g>
<!-- src/infrastructure/repositories/repository.ts&#45;&gt;src/infrastructure/repositories/InMemoryTaskRepository.ts -->
<g id="edge17" class="edge">
<title>src/infrastructure/repositories/repository.ts&#45;&gt;src/infrastructure/repositories/InMemoryTaskRepository.ts</title>
<path fill="none" stroke="#000000" stroke-width="2" stroke-opacity="0.200000" d="M413.42,-71C420.45,-71 428.15,-71 436.04,-71"/>
<polygon fill="#000000" fill-opacity="0.200000" stroke="#000000" stroke-width="2" stroke-opacity="0.200000" points="435.98,-73.1 441.98,-71 435.98,-68.9 435.98,-73.1"/>
</g>
<!-- src/app/context/useTaskContext.ts -->
<g id="node7" class="node">
<title>src/app/context/useTaskContext.ts</title>
<g id="a_node7"><a xlink:href="src/app/context/useTaskContext.ts" xlink:title="useTaskContext.ts">
<path fill="#ddfeff" stroke="black" d="M317.58,-173.88C317.58,-173.88 239.17,-173.88 239.17,-173.88 236.21,-173.88 233.25,-170.92 233.25,-167.96 233.25,-167.96 233.25,-162.04 233.25,-162.04 233.25,-159.08 236.21,-156.12 239.17,-156.12 239.17,-156.12 317.58,-156.12 317.58,-156.12 320.54,-156.12 323.5,-159.08 323.5,-162.04 323.5,-162.04 323.5,-167.96 323.5,-167.96 323.5,-170.92 320.54,-173.88 317.58,-173.88"/>
<text text-anchor="start" x="241.25" y="-161.32" font-family="Helvetica,sans-Serif" font-size="9.00">useTaskContext.ts</text>
</a>
</g>
</g>
<!-- src/app/context/useTaskContext.ts&#45;&gt;src/app/context/TaskContext.tsx -->
<g id="edge7" class="edge">
<title>src/app/context/useTaskContext.ts&#45;&gt;src/app/context/TaskContext.tsx</title>
<path fill="none" stroke="#000000" stroke-width="2" stroke-opacity="0.200000" d="M323.76,-168.56C326.22,-168.75 328.69,-168.95 331.16,-169.15"/>
<polygon fill="#000000" fill-opacity="0.200000" stroke="#000000" stroke-width="2" stroke-opacity="0.200000" points="330.86,-171.23 337.01,-169.62 331.19,-167.04 330.86,-171.23"/>
</g>
<!-- src/bidule.ts -->
<g id="node8" class="node">
<title>src/bidule.ts</title>
<g id="a_node8"><a xlink:href="src/bidule.ts" xlink:title="bidule.ts">
<path fill="#ddfeff" stroke="black" d="M299.46,-49.88C299.46,-49.88 257.29,-49.88 257.29,-49.88 254.33,-49.88 251.38,-46.92 251.38,-43.96 251.38,-43.96 251.38,-38.04 251.38,-38.04 251.38,-35.08 254.33,-32.12 257.29,-32.12 257.29,-32.12 299.46,-32.12 299.46,-32.12 302.42,-32.12 305.38,-35.08 305.38,-38.04 305.38,-38.04 305.38,-43.96 305.38,-43.96 305.38,-46.92 302.42,-49.88 299.46,-49.88"/>
<text text-anchor="start" x="261.12" y="-37.33" font-family="Helvetica,sans-Serif" font-size="9.00">bidule.ts</text>
</a>
</g>
</g>
<!-- src/bidule.ts&#45;&gt;src/domain/ports/TaskRepository.ts -->
<g id="edge8" class="edge">
<title>src/bidule.ts&#45;&gt;src/domain/ports/TaskRepository.ts</title>
<path fill="none" stroke="#000000" stroke-width="2" stroke-opacity="0.200000" d="M305.78,-33.42C362.97,-18.66 500.36,7.61 590,-51 623.89,-73.16 639.39,-121.29 645.54,-147.36"/>
<polygon fill="#000000" fill-opacity="0.200000" stroke="#000000" stroke-width="2" stroke-opacity="0.200000" points="643.42,-147.51 646.75,-152.92 647.52,-146.61 643.42,-147.51"/>
</g>
<!-- src/bidule.ts&#45;&gt;src/infrastructure/repositories/InMemoryTaskRepository.ts -->
<g id="edge9" class="edge">
<title>src/bidule.ts&#45;&gt;src/infrastructure/repositories/InMemoryTaskRepository.ts</title>
<path fill="none" stroke="#000000" stroke-width="2" stroke-opacity="0.200000" d="M305.6,-42.31C336.86,-44.14 390.59,-48.17 436.12,-56 439.74,-56.62 440.55,-57.19 444.12,-58 446.77,-58.6 449.49,-59.2 452.23,-59.79"/>
<polygon fill="#000000" fill-opacity="0.200000" stroke="#000000" stroke-width="2" stroke-opacity="0.200000" points="451.79,-61.84 458.09,-61.04 452.66,-57.73 451.79,-61.84"/>
</g>
<!-- src/bidule.ts&#45;&gt;src/ui/components/TaskList.tsx -->
<g id="edge10" class="edge">
<title>src/bidule.ts&#45;&gt;src/ui/components/TaskList.tsx</title>
<g id="a_edge10"><a xlink:title="no&#45;circular">
<path fill="none" stroke="red" stroke-width="2" d="M251.06,-44.91C240.75,-45.38 228.57,-45.57 216.75,-45.48"/>
<polygon fill="red" stroke="red" stroke-width="2" points="207.27,-43.18 201.22,-45.15 207.18,-47.37 207.27,-43.18"/>
<polyline fill="none" stroke="red" stroke-width="2" points="208.22,-45.3 211.22,-45.36"/>
<ellipse fill="none" stroke="red" stroke-width="2" cx="214.62" cy="-45.43" rx="2.4" ry="2.4"/>
</a>
</g>
<text text-anchor="middle" x="202.79" y="-46.7" font-family="Helvetica,sans-Serif" font-size="9.00" fill="red">no&#45;circular</text>
</g>
<!-- src/domain/ports/TaskRepository.ts&#45;&gt;src/domain/models/Task.ts -->
<g id="edge11" class="edge">
<title>src/domain/ports/TaskRepository.ts&#45;&gt;src/domain/models/Task.ts</title>
<path fill="none" stroke="#000000" stroke-width="2" stroke-opacity="0.200000" d="M694.23,-165C699.09,-165 703.99,-165 708.73,-165"/>
<polygon fill="#000000" fill-opacity="0.200000" stroke="#000000" stroke-width="2" stroke-opacity="0.200000" points="708.56,-167.1 714.56,-165 708.56,-162.9 708.56,-167.1"/>
</g>
<!-- src/infrastructure/repositories/InMemoryTaskRepository.ts&#45;&gt;src/domain/ports/TaskRepository.ts -->
<g id="edge15" class="edge">
<title>src/infrastructure/repositories/InMemoryTaskRepository.ts&#45;&gt;src/domain/ports/TaskRepository.ts</title>
<path fill="none" stroke="#000000" stroke-width="2" stroke-opacity="0.200000" d="M529.24,-80.31C545.67,-88.85 570.09,-102.24 590,-116 605.06,-126.41 620.96,-139.77 632.45,-149.91"/>
<polygon fill="#000000" fill-opacity="0.200000" stroke="#000000" stroke-width="2" stroke-opacity="0.200000" points="630.86,-151.3 636.74,-153.73 633.66,-148.17 630.86,-151.3"/>
</g>
<!-- src/infrastructure/repositories/InMemoryTaskRepository.ts&#45;&gt;src/domain/models/Task.ts -->
<g id="edge14" class="edge">
<title>src/infrastructure/repositories/InMemoryTaskRepository.ts&#45;&gt;src/domain/models/Task.ts</title>
<path fill="none" stroke="#000000" stroke-width="2" stroke-opacity="0.200000" d="M536.67,-80.33C573.68,-93.8 643.64,-119.86 702,-145 707.06,-147.18 712.41,-149.62 717.53,-152.03"/>
<polygon fill="#000000" fill-opacity="0.200000" stroke="#000000" stroke-width="2" stroke-opacity="0.200000" points="716.27,-153.75 722.59,-154.43 718.07,-149.96 716.27,-153.75"/>
</g>
<!-- src/ui/components/TaskList.tsx&#45;&gt;src/app/context/useTaskContext.ts -->
<g id="edge21" class="edge">
<title>src/ui/components/TaskList.tsx&#45;&gt;src/app/context/useTaskContext.ts</title>
<path fill="none" stroke="#000000" stroke-width="2" stroke-opacity="0.200000" d="M198.29,-44.25C205.52,-46.49 212.49,-50.12 217.25,-56 230.71,-72.64 211.38,-135.69 225.25,-152 225.52,-152.32 225.8,-152.63 226.09,-152.94"/>
<polygon fill="#000000" fill-opacity="0.200000" stroke="#000000" stroke-width="2" stroke-opacity="0.200000" points="224.51,-154.37 230.51,-156.48 227.13,-151.09 224.51,-154.37"/>
</g>
<!-- src/ui/components/TaskList.tsx&#45;&gt;src/bidule.ts -->
<g id="edge22" class="edge">
<title>src/ui/components/TaskList.tsx&#45;&gt;src/bidule.ts</title>
<g id="a_edge22"><a xlink:title="no&#45;circular">
<path fill="none" stroke="red" stroke-width="2" d="M198.2,-36.92C208.84,-36.53 221.02,-36.41 232.57,-36.57"/>
<polygon fill="red" stroke="red" stroke-width="2" points="241.98,-38.94 248.04,-37.01 242.1,-34.74 241.98,-38.94"/>
<polyline fill="none" stroke="red" stroke-width="2" points="241.04,-36.81 238.04,-36.72"/>
<ellipse fill="none" stroke="red" stroke-width="2" cx="234.64" cy="-36.63" rx="2.4" ry="2.4"/>
</a>
</g>
<text text-anchor="middle" x="246.12" y="-27.95" font-family="Helvetica,sans-Serif" font-size="9.00" fill="red">no&#45;circular</text>
</g>
<!-- src/index.css -->
<g id="node13" class="node">
<title>src/index.css</title>
<g id="a_node13"><a xlink:href="src/index.css" xlink:title="index.css">
<path fill="#ffffcc" stroke="black" d="M187.83,-281.88C187.83,-281.88 145.42,-281.88 145.42,-281.88 142.46,-281.88 139.5,-278.92 139.5,-275.96 139.5,-275.96 139.5,-270.04 139.5,-270.04 139.5,-267.08 142.46,-264.12 145.42,-264.12 145.42,-264.12 187.83,-264.12 187.83,-264.12 190.79,-264.12 193.75,-267.08 193.75,-270.04 193.75,-270.04 193.75,-275.96 193.75,-275.96 193.75,-278.92 190.79,-281.88 187.83,-281.88"/>
<text text-anchor="start" x="147.5" y="-269.32" font-family="Helvetica,sans-Serif" font-size="9.00">index.css</text>
</a>
</g>
</g>
<!-- src/main.tsx -->
<g id="node14" class="node">
<title>src/main.tsx</title>
<g id="a_node14"><a xlink:href="src/main.tsx" xlink:title="main.tsx">
<path fill="#bbfeff" stroke="black" d="M91.08,-215.88C91.08,-215.88 48.92,-215.88 48.92,-215.88 45.96,-215.88 43,-212.92 43,-209.96 43,-209.96 43,-204.04 43,-204.04 43,-201.08 45.96,-198.12 48.92,-198.12 48.92,-198.12 91.08,-198.12 91.08,-198.12 94.04,-198.12 97,-201.08 97,-204.04 97,-204.04 97,-209.96 97,-209.96 97,-212.92 94.04,-215.88 91.08,-215.88"/>
<text text-anchor="start" x="53.12" y="-203.32" font-family="Helvetica,sans-Serif" font-size="9.00">main.tsx</text>
</a>
</g>
</g>
<!-- src/main.tsx&#45;&gt;src/app/App.tsx -->
<g id="edge18" class="edge">
<title>src/main.tsx&#45;&gt;src/app/App.tsx</title>
<path fill="none" stroke="#000000" stroke-width="2" stroke-opacity="0.200000" d="M97.36,-203.66C107.61,-202.36 119.51,-200.85 130.47,-199.46"/>
<polygon fill="#000000" fill-opacity="0.200000" stroke="#000000" stroke-width="2" stroke-opacity="0.200000" points="130.72,-201.54 136.4,-198.71 130.19,-197.38 130.72,-201.54"/>
</g>
<!-- src/main.tsx&#45;&gt;src/index.css -->
<g id="edge19" class="edge">
<title>src/main.tsx&#45;&gt;src/index.css</title>
<path fill="none" stroke="#000000" stroke-width="2" stroke-opacity="0.200000" d="M83.77,-216.35C93.33,-223.73 106.36,-234.65 116,-246 120.39,-251.17 118.69,-254.78 124,-259 126.21,-260.76 128.65,-262.3 131.2,-263.65"/>
<polygon fill="#000000" fill-opacity="0.200000" stroke="#000000" stroke-width="2" stroke-opacity="0.200000" points="130.02,-265.42 136.35,-265.93 131.72,-261.58 130.02,-265.42"/>
</g>
<!-- src/ui/components/TaskForm.tsx&#45;&gt;src/app/context/useTaskContext.ts -->
<g id="edge20" class="edge">
<title>src/ui/components/TaskForm.tsx&#45;&gt;src/app/context/useTaskContext.ts</title>
<path fill="none" stroke="#000000" stroke-width="2" stroke-opacity="0.200000" d="M175.16,-80.07C185.32,-92.51 203.69,-115.72 217.25,-137 220.42,-141.98 219.88,-145.5 225.98,-151.29"/>
<polygon fill="#000000" fill-opacity="0.200000" stroke="#000000" stroke-width="2" stroke-opacity="0.200000" points="224.52,-152.81 230.52,-154.89 227.13,-149.52 224.52,-152.81"/>
</g>
<!-- src/vite&#45;env.d.ts -->
<g id="node16" class="node">
<title>src/vite&#45;env.d.ts</title>
<g id="a_node16"><a xlink:href="src/vite-env.d.ts" xlink:title="vite&#45;env.d.ts">
<path fill="#ccffcc" stroke="black" d="M96.46,-269.88C96.46,-269.88 43.54,-269.88 43.54,-269.88 40.58,-269.88 37.62,-266.92 37.62,-263.96 37.62,-263.96 37.62,-258.04 37.62,-258.04 37.62,-255.08 40.58,-252.12 43.54,-252.12 43.54,-252.12 96.46,-252.12 96.46,-252.12 99.42,-252.12 102.38,-255.08 102.38,-258.04 102.38,-258.04 102.38,-263.96 102.38,-263.96 102.38,-266.92 99.42,-269.88 96.46,-269.88"/>
<text text-anchor="start" x="45.62" y="-257.32" font-family="Helvetica,sans-Serif" font-size="9.00">vite&#45;env.d.ts</text>
</a>
</g>
</g>
</g>
</svg>
