<?xml version="1.0" encoding="UTF-8" standalone="no"?>
<!DOCTYPE svg PUBLIC "-//W3C//DTD SVG 1.1//EN"
 "http://www.w3.org/Graphics/SVG/1.1/DTD/svg11.dtd">
<!-- Generated by graphviz version 12.2.1 (20241206.2353)
 -->
<!-- Title: dependency&#45;cruiser output Pages: 1 -->
<svg width="720pt" height="294pt"
 viewBox="0.00 0.00 719.50 294.00" xmlns="http://www.w3.org/2000/svg" xmlns:xlink="http://www.w3.org/1999/xlink">
<g id="graph0" class="graph" transform="scale(1 1) rotate(0) translate(4 290)">
<title>dependency&#45;cruiser output</title>
<polygon fill="white" stroke="none" points="-4,4 -4,-290 715.5,-290 715.5,4 -4,4"/>
<g id="clust1" class="cluster">
<title>cluster_src</title>
<path fill="#ffffff" stroke="black" stroke-width="2" d="M20,-8C20,-8 691.5,-8 691.5,-8 697.5,-8 703.5,-14 703.5,-20 703.5,-20 703.5,-266 703.5,-266 703.5,-272 697.5,-278 691.5,-278 691.5,-278 20,-278 20,-278 14,-278 8,-272 8,-266 8,-266 8,-20 8,-20 8,-14 14,-8 20,-8"/>
<text text-anchor="middle" x="355.75" y="-265.45" font-family="Helvetica,sans-Serif" font-weight="bold" font-size="9.00">src</text>
</g>
<g id="clust2" class="cluster">
<title>cluster_src/app</title>
<path fill="#ffffff" stroke="black" stroke-width="2" d="M143.62,-140C143.62,-140 317,-140 317,-140 323,-140 329,-146 329,-152 329,-152 329,-214 329,-214 329,-220 323,-226 317,-226 317,-226 143.62,-226 143.62,-226 137.62,-226 131.62,-220 131.62,-214 131.62,-214 131.62,-152 131.62,-152 131.62,-146 137.62,-140 143.62,-140"/>
<text text-anchor="middle" x="230.31" y="-213.45" font-family="Helvetica,sans-Serif" font-weight="bold" font-size="9.00">app</text>
</g>
<g id="clust3" class="cluster">
<title>cluster_src/app/context</title>
<path fill="#ffffff" stroke="black" stroke-width="2" d="M237.25,-148C237.25,-148 309,-148 309,-148 315,-148 321,-154 321,-160 321,-160 321,-188 321,-188 321,-194 315,-200 309,-200 309,-200 237.25,-200 237.25,-200 231.25,-200 225.25,-194 225.25,-188 225.25,-188 225.25,-160 225.25,-160 225.25,-154 231.25,-148 237.25,-148"/>
<text text-anchor="middle" x="273.12" y="-187.45" font-family="Helvetica,sans-Serif" font-weight="bold" font-size="9.00">context</text>
</g>
<g id="clust4" class="cluster">
<title>cluster_src/domain</title>
<path fill="#ffffff" stroke="black" stroke-width="2" d="M363.62,-62C363.62,-62 683.5,-62 683.5,-62 689.5,-62 695.5,-68 695.5,-74 695.5,-74 695.5,-146 695.5,-146 695.5,-152 689.5,-158 683.5,-158 683.5,-158 363.62,-158 363.62,-158 357.62,-158 351.62,-152 351.62,-146 351.62,-146 351.62,-74 351.62,-74 351.62,-68 357.62,-62 363.62,-62"/>
<text text-anchor="middle" x="523.56" y="-145.45" font-family="Helvetica,sans-Serif" font-weight="bold" font-size="9.00">domain</text>
</g>
<g id="clust5" class="cluster">
<title>cluster_src/domain/models</title>
<path fill="#ffffff" stroke="black" stroke-width="2" d="M629.5,-80C629.5,-80 675.5,-80 675.5,-80 681.5,-80 687.5,-86 687.5,-92 687.5,-92 687.5,-120 687.5,-120 687.5,-126 681.5,-132 675.5,-132 675.5,-132 629.5,-132 629.5,-132 623.5,-132 617.5,-126 617.5,-120 617.5,-120 617.5,-92 617.5,-92 617.5,-86 623.5,-80 629.5,-80"/>
<text text-anchor="middle" x="652.5" y="-119.45" font-family="Helvetica,sans-Serif" font-weight="bold" font-size="9.00">models</text>
</g>
<g id="clust6" class="cluster">
<title>cluster_src/domain/ports</title>
<path fill="#ffffff" stroke="black" stroke-width="2" d="M517.5,-70C517.5,-70 597.5,-70 597.5,-70 603.5,-70 609.5,-76 609.5,-82 609.5,-82 609.5,-110 609.5,-110 609.5,-116 603.5,-122 597.5,-122 597.5,-122 517.5,-122 517.5,-122 511.5,-122 505.5,-116 505.5,-110 505.5,-110 505.5,-82 505.5,-82 505.5,-76 511.5,-70 517.5,-70"/>
<text text-anchor="middle" x="557.5" y="-109.45" font-family="Helvetica,sans-Serif" font-weight="bold" font-size="9.00">ports</text>
</g>
<g id="clust7" class="cluster">
<title>cluster_src/domain/usecases</title>
<path fill="#ffffff" stroke="black" stroke-width="2" d="M371.62,-80C371.62,-80 462.88,-80 462.88,-80 468.88,-80 474.88,-86 474.88,-92 474.88,-92 474.88,-120 474.88,-120 474.88,-126 468.88,-132 462.88,-132 462.88,-132 371.62,-132 371.62,-132 365.62,-132 359.62,-126 359.62,-120 359.62,-120 359.62,-92 359.62,-92 359.62,-86 365.62,-80 371.62,-80"/>
<text text-anchor="middle" x="417.25" y="-119.45" font-family="Helvetica,sans-Serif" font-weight="bold" font-size="9.00">usecases</text>
</g>
<g id="clust8" class="cluster">
<title>cluster_src/infrastructure</title>
<path fill="#ffffff" stroke="black" stroke-width="2" d="M349,-166C349,-166 485.5,-166 485.5,-166 491.5,-166 497.5,-172 497.5,-178 497.5,-178 497.5,-240 497.5,-240 497.5,-246 491.5,-252 485.5,-252 485.5,-252 349,-252 349,-252 343,-252 337,-246 337,-240 337,-240 337,-178 337,-178 337,-172 343,-166 349,-166"/>
<text text-anchor="middle" x="417.25" y="-239.45" font-family="Helvetica,sans-Serif" font-weight="bold" font-size="9.00">infrastructure</text>
</g>
<g id="clust9" class="cluster">
<title>cluster_src/infrastructure/repositories</title>
<path fill="#ffffff" stroke="black" stroke-width="2" d="M357,-174C357,-174 477.5,-174 477.5,-174 483.5,-174 489.5,-180 489.5,-186 489.5,-186 489.5,-214 489.5,-214 489.5,-220 483.5,-226 477.5,-226 477.5,-226 357,-226 357,-226 351,-226 345,-220 345,-214 345,-214 345,-186 345,-186 345,-180 351,-174 357,-174"/>
<text text-anchor="middle" x="417.25" y="-213.45" font-family="Helvetica,sans-Serif" font-weight="bold" font-size="9.00">repositories</text>
</g>
<g id="clust10" class="cluster">
<title>cluster_src/ui</title>
<path fill="#ffffff" stroke="black" stroke-width="2" d="M28,-16C28,-16 205.25,-16 205.25,-16 211.25,-16 217.25,-22 217.25,-28 217.25,-28 217.25,-120 217.25,-120 217.25,-126 211.25,-132 205.25,-132 205.25,-132 28,-132 28,-132 22,-132 16,-126 16,-120 16,-120 16,-28 16,-28 16,-22 22,-16 28,-16"/>
<text text-anchor="middle" x="116.62" y="-119.45" font-family="Helvetica,sans-Serif" font-weight="bold" font-size="9.00">ui</text>
</g>
<g id="clust11" class="cluster">
<title>cluster_src/ui/components</title>
<path fill="#ffffff" stroke="black" stroke-width="2" d="M136,-24C136,-24 197.25,-24 197.25,-24 203.25,-24 209.25,-30 209.25,-36 209.25,-36 209.25,-94 209.25,-94 209.25,-100 203.25,-106 197.25,-106 197.25,-106 136,-106 136,-106 130,-106 124,-100 124,-94 124,-94 124,-36 124,-36 124,-30 130,-24 136,-24"/>
<text text-anchor="middle" x="166.62" y="-93.45" font-family="Helvetica,sans-Serif" font-weight="bold" font-size="9.00">components</text>
</g>
<g id="clust12" class="cluster">
<title>cluster_src/ui/pages</title>
<path fill="#ffffff" stroke="black" stroke-width="2" d="M36,-54C36,-54 104,-54 104,-54 110,-54 116,-60 116,-66 116,-66 116,-94 116,-94 116,-100 110,-106 104,-106 104,-106 36,-106 36,-106 30,-106 24,-100 24,-94 24,-94 24,-66 24,-66 24,-60 30,-54 36,-54"/>
<text text-anchor="middle" x="70" y="-93.45" font-family="Helvetica,sans-Serif" font-weight="bold" font-size="9.00">pages</text>
</g>
<!-- src/app/App.tsx -->
<g id="node1" class="node">
<title>src/app/App.tsx</title>
<g id="a_node1"><a xlink:href="src/app/App.tsx" xlink:title="App.tsx">
<path fill="#bbfeff" stroke="black" d="M187.71,-173.88C187.71,-173.88 145.54,-173.88 145.54,-173.88 142.58,-173.88 139.62,-170.92 139.62,-167.96 139.62,-167.96 139.62,-162.04 139.62,-162.04 139.62,-159.08 142.58,-156.12 145.54,-156.12 145.54,-156.12 187.71,-156.12 187.71,-156.12 190.67,-156.12 193.62,-159.08 193.62,-162.04 193.62,-162.04 193.62,-167.96 193.62,-167.96 193.62,-170.92 190.67,-173.88 187.71,-173.88"/>
<text text-anchor="start" x="151.62" y="-161.32" font-family="Helvetica,sans-Serif" font-size="9.00">App.tsx</text>
</a>
</g>
</g>
<!-- src/ui/pages/HomePage.tsx -->
<g id="node2" class="node">
<title>src/ui/pages/HomePage.tsx</title>
<g id="a_node2"><a xlink:href="src/ui/pages/HomePage.tsx" xlink:title="HomePage.tsx">
<path fill="#bbfeff" stroke="black" d="M102.08,-79.88C102.08,-79.88 37.92,-79.88 37.92,-79.88 34.96,-79.88 32,-76.92 32,-73.96 32,-73.96 32,-68.04 32,-68.04 32,-65.08 34.96,-62.12 37.92,-62.12 37.92,-62.12 102.08,-62.12 102.08,-62.12 105.04,-62.12 108,-65.08 108,-68.04 108,-68.04 108,-73.96 108,-73.96 108,-76.92 105.04,-79.88 102.08,-79.88"/>
<text text-anchor="start" x="40" y="-67.33" font-family="Helvetica,sans-Serif" font-size="9.00">HomePage.tsx</text>
</a>
</g>
</g>
<!-- src/app/App.tsx&#45;&gt;src/ui/pages/HomePage.tsx -->
<g id="edge1" class="edge">
<title>src/app/App.tsx&#45;&gt;src/ui/pages/HomePage.tsx</title>
<path fill="none" stroke="#000000" stroke-width="2" stroke-opacity="0.200000" d="M157.21,-155.74C147.96,-145.12 133.19,-126.89 124,-109 118.67,-98.62 124.37,-92.13 116,-84 115.86,-83.87 115.72,-83.73 115.58,-83.6"/>
<polygon fill="#000000" fill-opacity="0.200000" stroke="#000000" stroke-width="2" stroke-opacity="0.200000" points="117.06,-82.08 110.96,-80.3 114.62,-85.5 117.06,-82.08"/>
</g>
<!-- src/app/context/TaskContext.tsx -->
<g id="node3" class="node">
<title>src/app/context/TaskContext.tsx</title>
<g id="a_node3"><a xlink:href="src/app/context/TaskContext.tsx" xlink:title="TaskContext.tsx">
<path fill="#bbfeff" stroke="black" d="M307.08,-173.88C307.08,-173.88 239.17,-173.88 239.17,-173.88 236.21,-173.88 233.25,-170.92 233.25,-167.96 233.25,-167.96 233.25,-162.04 233.25,-162.04 233.25,-159.08 236.21,-156.12 239.17,-156.12 239.17,-156.12 307.08,-156.12 307.08,-156.12 310.04,-156.12 313,-159.08 313,-162.04 313,-162.04 313,-167.96 313,-167.96 313,-170.92 310.04,-173.88 307.08,-173.88"/>
<text text-anchor="start" x="241.25" y="-161.32" font-family="Helvetica,sans-Serif" font-size="9.00">TaskContext.tsx</text>
</a>
</g>
</g>
<!-- src/app/App.tsx&#45;&gt;src/app/context/TaskContext.tsx -->
<g id="edge2" class="edge">
<title>src/app/App.tsx&#45;&gt;src/app/context/TaskContext.tsx</title>
<path fill="none" stroke="#000000" stroke-width="2" stroke-opacity="0.200000" d="M193.99,-165C203.16,-165 213.75,-165 224.11,-165"/>
<polygon fill="#000000" fill-opacity="0.200000" stroke="#000000" stroke-width="2" stroke-opacity="0.200000" points="224.09,-167.1 230.09,-165 224.09,-162.9 224.09,-167.1"/>
</g>
<!-- src/ui/components/TaskForm.tsx -->
<g id="node10" class="node">
<title>src/ui/components/TaskForm.tsx</title>
<g id="a_node10"><a xlink:href="src/ui/components/TaskForm.tsx" xlink:title="TaskForm.tsx">
<path fill="#bbfeff" stroke="black" d="M195.33,-49.88C195.33,-49.88 137.92,-49.88 137.92,-49.88 134.96,-49.88 132,-46.92 132,-43.96 132,-43.96 132,-38.04 132,-38.04 132,-35.08 134.96,-32.12 137.92,-32.12 137.92,-32.12 195.33,-32.12 195.33,-32.12 198.29,-32.12 201.25,-35.08 201.25,-38.04 201.25,-38.04 201.25,-43.96 201.25,-43.96 201.25,-46.92 198.29,-49.88 195.33,-49.88"/>
<text text-anchor="start" x="140" y="-37.33" font-family="Helvetica,sans-Serif" font-size="9.00">TaskForm.tsx</text>
</a>
</g>
</g>
<!-- src/ui/pages/HomePage.tsx&#45;&gt;src/ui/components/TaskForm.tsx -->
<g id="edge15" class="edge">
<title>src/ui/pages/HomePage.tsx&#45;&gt;src/ui/components/TaskForm.tsx</title>
<path fill="none" stroke="#000000" stroke-width="2" stroke-opacity="0.200000" d="M100.42,-61.67C109.06,-58.93 118.62,-55.9 127.71,-53.02"/>
<polygon fill="#000000" fill-opacity="0.200000" stroke="#000000" stroke-width="2" stroke-opacity="0.200000" points="128.25,-55.05 133.34,-51.24 126.98,-51.05 128.25,-55.05"/>
</g>
<!-- src/ui/components/TaskList.tsx -->
<g id="node11" class="node">
<title>src/ui/components/TaskList.tsx</title>
<g id="a_node11"><a xlink:href="src/ui/components/TaskList.tsx" xlink:title="TaskList.tsx">
<path fill="#bbfeff" stroke="black" d="M191.96,-79.88C191.96,-79.88 141.29,-79.88 141.29,-79.88 138.33,-79.88 135.38,-76.92 135.38,-73.96 135.38,-73.96 135.38,-68.04 135.38,-68.04 135.38,-65.08 138.33,-62.12 141.29,-62.12 141.29,-62.12 191.96,-62.12 191.96,-62.12 194.92,-62.12 197.88,-65.08 197.88,-68.04 197.88,-68.04 197.88,-73.96 197.88,-73.96 197.88,-76.92 194.92,-79.88 191.96,-79.88"/>
<text text-anchor="start" x="143.38" y="-67.33" font-family="Helvetica,sans-Serif" font-size="9.00">TaskList.tsx</text>
</a>
</g>
</g>
<!-- src/ui/pages/HomePage.tsx&#45;&gt;src/ui/components/TaskList.tsx -->
<g id="edge16" class="edge">
<title>src/ui/pages/HomePage.tsx&#45;&gt;src/ui/components/TaskList.tsx</title>
<path fill="none" stroke="#000000" stroke-width="2" stroke-opacity="0.200000" d="M108.4,-71C114.16,-71 120.13,-71 125.94,-71"/>
<polygon fill="#000000" fill-opacity="0.200000" stroke="#000000" stroke-width="2" stroke-opacity="0.200000" points="125.86,-73.1 131.86,-71 125.86,-68.9 125.86,-73.1"/>
</g>
<!-- src/domain/ports/TaskRepository.ts -->
<g id="node4" class="node">
<title>src/domain/ports/TaskRepository.ts</title>
<g id="a_node4"><a xlink:href="src/domain/ports/TaskRepository.ts" xlink:title="TaskRepository.ts">
<path fill="#ddfeff" stroke="black" d="M595.58,-95.88C595.58,-95.88 519.42,-95.88 519.42,-95.88 516.46,-95.88 513.5,-92.92 513.5,-89.96 513.5,-89.96 513.5,-84.04 513.5,-84.04 513.5,-81.08 516.46,-78.12 519.42,-78.12 519.42,-78.12 595.58,-78.12 595.58,-78.12 598.54,-78.12 601.5,-81.08 601.5,-84.04 601.5,-84.04 601.5,-89.96 601.5,-89.96 601.5,-92.92 598.54,-95.88 595.58,-95.88"/>
<text text-anchor="start" x="521.5" y="-83.33" font-family="Helvetica,sans-Serif" font-size="9.00">TaskRepository.ts</text>
</a>
</g>
</g>
<!-- src/app/context/TaskContext.tsx&#45;&gt;src/domain/ports/TaskRepository.ts -->
<g id="edge3" class="edge">
<title>src/app/context/TaskContext.tsx&#45;&gt;src/domain/ports/TaskRepository.ts</title>
<path fill="none" stroke="#000000" stroke-width="2" stroke-opacity="0.200000" d="M277.36,-155.83C284.61,-136.91 304.11,-93.92 337,-77 395.83,-46.73 475.7,-62.06 521.09,-75.11"/>
<polygon fill="#000000" fill-opacity="0.200000" stroke="#000000" stroke-width="2" stroke-opacity="0.200000" points="520.44,-77.1 526.79,-76.8 521.64,-73.08 520.44,-77.1"/>
</g>
<!-- src/domain/usecases/useTaskUsecases.ts -->
<g id="node5" class="node">
<title>src/domain/usecases/useTaskUsecases.ts</title>
<g id="a_node5"><a xlink:href="src/domain/usecases/useTaskUsecases.ts" xlink:title="useTaskUsecases.ts">
<path fill="#ddfeff" stroke="black" d="M460.96,-105.88C460.96,-105.88 373.54,-105.88 373.54,-105.88 370.58,-105.88 367.62,-102.92 367.62,-99.96 367.62,-99.96 367.62,-94.04 367.62,-94.04 367.62,-91.08 370.58,-88.12 373.54,-88.12 373.54,-88.12 460.96,-88.12 460.96,-88.12 463.92,-88.12 466.88,-91.08 466.88,-94.04 466.88,-94.04 466.88,-99.96 466.88,-99.96 466.88,-102.92 463.92,-105.88 460.96,-105.88"/>
<text text-anchor="start" x="375.62" y="-93.33" font-family="Helvetica,sans-Serif" font-size="9.00">useTaskUsecases.ts</text>
</a>
</g>
</g>
<!-- src/app/context/TaskContext.tsx&#45;&gt;src/domain/usecases/useTaskUsecases.ts -->
<g id="edge4" class="edge">
<title>src/app/context/TaskContext.tsx&#45;&gt;src/domain/usecases/useTaskUsecases.ts</title>
<path fill="none" stroke="#000000" stroke-width="2" stroke-opacity="0.200000" d="M293.59,-155.69C318.36,-143.84 361.28,-123.3 389.22,-109.93"/>
<polygon fill="#000000" fill-opacity="0.200000" stroke="#000000" stroke-width="2" stroke-opacity="0.200000" points="389.78,-111.99 394.29,-107.51 387.97,-108.2 389.78,-111.99"/>
</g>
<!-- src/infrastructure/repositories/InMemoryTaskRepository.ts -->
<g id="node6" class="node">
<title>src/infrastructure/repositories/InMemoryTaskRepository.ts</title>
<g id="a_node6"><a xlink:href="src/infrastructure/repositories/InMemoryTaskRepository.ts" xlink:title="InMemoryTaskRepository.ts">
<path fill="#ddfeff" stroke="black" d="M475.58,-199.88C475.58,-199.88 358.92,-199.88 358.92,-199.88 355.96,-199.88 353,-196.92 353,-193.96 353,-193.96 353,-188.04 353,-188.04 353,-185.08 355.96,-182.12 358.92,-182.12 358.92,-182.12 475.58,-182.12 475.58,-182.12 478.54,-182.12 481.5,-185.08 481.5,-188.04 481.5,-188.04 481.5,-193.96 481.5,-193.96 481.5,-196.92 478.54,-199.88 475.58,-199.88"/>
<text text-anchor="start" x="361" y="-187.32" font-family="Helvetica,sans-Serif" font-size="9.00">InMemoryTaskRepository.ts</text>
</a>
</g>
</g>
<!-- src/app/context/TaskContext.tsx&#45;&gt;src/infrastructure/repositories/InMemoryTaskRepository.ts -->
<g id="edge5" class="edge">
<title>src/app/context/TaskContext.tsx&#45;&gt;src/infrastructure/repositories/InMemoryTaskRepository.ts</title>
<path fill="none" stroke="#000000" stroke-width="2" stroke-opacity="0.200000" d="M313.34,-172.17C326.73,-174.62 342.03,-177.42 356.66,-180.1"/>
<polygon fill="#000000" fill-opacity="0.200000" stroke="#000000" stroke-width="2" stroke-opacity="0.200000" points="355.92,-182.1 362.2,-181.11 356.67,-177.97 355.92,-182.1"/>
</g>
<!-- src/domain/models/Task.ts -->
<g id="node7" class="node">
<title>src/domain/models/Task.ts</title>
<g id="a_node7"><a xlink:href="src/domain/models/Task.ts" xlink:title="Task.ts">
<path fill="#ddfeff" stroke="black" d="M673.58,-105.88C673.58,-105.88 631.42,-105.88 631.42,-105.88 628.46,-105.88 625.5,-102.92 625.5,-99.96 625.5,-99.96 625.5,-94.04 625.5,-94.04 625.5,-91.08 628.46,-88.12 631.42,-88.12 631.42,-88.12 673.58,-88.12 673.58,-88.12 676.54,-88.12 679.5,-91.08 679.5,-94.04 679.5,-94.04 679.5,-99.96 679.5,-99.96 679.5,-102.92 676.54,-105.88 673.58,-105.88"/>
<text text-anchor="start" x="638.62" y="-93.33" font-family="Helvetica,sans-Serif" font-size="9.00">Task.ts</text>
</a>
</g>
</g>
<!-- src/domain/ports/TaskRepository.ts&#45;&gt;src/domain/models/Task.ts -->
<g id="edge6" class="edge">
<title>src/domain/ports/TaskRepository.ts&#45;&gt;src/domain/models/Task.ts</title>
<path fill="none" stroke="#000000" stroke-width="2" stroke-opacity="0.200000" d="M601.73,-91.65C606.59,-92.17 611.49,-92.7 616.23,-93.21"/>
<polygon fill="#000000" fill-opacity="0.200000" stroke="#000000" stroke-width="2" stroke-opacity="0.200000" points="615.88,-95.28 622.07,-93.84 616.33,-91.11 615.88,-95.28"/>
</g>
<!-- src/domain/usecases/useTaskUsecases.ts&#45;&gt;src/domain/ports/TaskRepository.ts -->
<g id="edge8" class="edge">
<title>src/domain/usecases/useTaskUsecases.ts&#45;&gt;src/domain/ports/TaskRepository.ts</title>
<path fill="none" stroke="#000000" stroke-width="2" stroke-opacity="0.200000" d="M466.99,-93.47C479.13,-92.6 492.18,-91.65 504.47,-90.76"/>
<polygon fill="#000000" fill-opacity="0.200000" stroke="#000000" stroke-width="2" stroke-opacity="0.200000" points="504.41,-92.87 510.24,-90.35 504.1,-88.68 504.41,-92.87"/>
</g>
<!-- src/domain/usecases/useTaskUsecases.ts&#45;&gt;src/domain/models/Task.ts -->
<g id="edge7" class="edge">
<title>src/domain/usecases/useTaskUsecases.ts&#45;&gt;src/domain/models/Task.ts</title>
<path fill="none" stroke="#000000" stroke-width="2" stroke-opacity="0.200000" d="M440.22,-106.31C476.27,-120.23 549.92,-143.04 609.5,-125 618.37,-122.31 627.08,-117.07 634.25,-111.84"/>
<polygon fill="#000000" fill-opacity="0.200000" stroke="#000000" stroke-width="2" stroke-opacity="0.200000" points="635.53,-113.5 638.97,-108.15 632.95,-110.19 635.53,-113.5"/>
</g>
<!-- src/infrastructure/repositories/InMemoryTaskRepository.ts&#45;&gt;src/domain/ports/TaskRepository.ts -->
<g id="edge10" class="edge">
<title>src/infrastructure/repositories/InMemoryTaskRepository.ts&#45;&gt;src/domain/ports/TaskRepository.ts</title>
<path fill="none" stroke="#000000" stroke-width="2" stroke-opacity="0.200000" d="M431.91,-181.76C447.87,-170.88 474.95,-152.11 497.5,-135 511.79,-124.16 527.52,-111.31 539.14,-101.64"/>
<polygon fill="#000000" fill-opacity="0.200000" stroke="#000000" stroke-width="2" stroke-opacity="0.200000" points="540.22,-103.47 543.48,-98.01 537.53,-100.25 540.22,-103.47"/>
</g>
<!-- src/infrastructure/repositories/InMemoryTaskRepository.ts&#45;&gt;src/domain/models/Task.ts -->
<g id="edge9" class="edge">
<title>src/infrastructure/repositories/InMemoryTaskRepository.ts&#45;&gt;src/domain/models/Task.ts</title>
<path fill="none" stroke="#000000" stroke-width="2" stroke-opacity="0.200000" d="M466.7,-181.63C506.67,-172.62 563.99,-156.68 609.5,-132 619.21,-126.73 628.77,-119.02 636.31,-112.18"/>
<polygon fill="#000000" fill-opacity="0.200000" stroke="#000000" stroke-width="2" stroke-opacity="0.200000" points="637.49,-113.95 640.41,-108.31 634.61,-110.9 637.49,-113.95"/>
</g>
<!-- src/index.css -->
<g id="node8" class="node">
<title>src/index.css</title>
<g id="a_node8"><a xlink:href="src/index.css" xlink:title="index.css">
<path fill="#ffffcc" stroke="black" d="M187.83,-251.88C187.83,-251.88 145.42,-251.88 145.42,-251.88 142.46,-251.88 139.5,-248.92 139.5,-245.96 139.5,-245.96 139.5,-240.04 139.5,-240.04 139.5,-237.08 142.46,-234.12 145.42,-234.12 145.42,-234.12 187.83,-234.12 187.83,-234.12 190.79,-234.12 193.75,-237.08 193.75,-240.04 193.75,-240.04 193.75,-245.96 193.75,-245.96 193.75,-248.92 190.79,-251.88 187.83,-251.88"/>
<text text-anchor="start" x="147.5" y="-239.32" font-family="Helvetica,sans-Serif" font-size="9.00">index.css</text>
</a>
</g>
</g>
<!-- src/main.tsx -->
<g id="node9" class="node">
<title>src/main.tsx</title>
<g id="a_node9"><a xlink:href="src/main.tsx" xlink:title="main.tsx">
<path fill="#bbfeff" stroke="black" d="M91.08,-185.88C91.08,-185.88 48.92,-185.88 48.92,-185.88 45.96,-185.88 43,-182.92 43,-179.96 43,-179.96 43,-174.04 43,-174.04 43,-171.08 45.96,-168.12 48.92,-168.12 48.92,-168.12 91.08,-168.12 91.08,-168.12 94.04,-168.12 97,-171.08 97,-174.04 97,-174.04 97,-179.96 97,-179.96 97,-182.92 94.04,-185.88 91.08,-185.88"/>
<text text-anchor="start" x="53.12" y="-173.32" font-family="Helvetica,sans-Serif" font-size="9.00">main.tsx</text>
</a>
</g>
</g>
<!-- src/main.tsx&#45;&gt;src/app/App.tsx -->
<g id="edge11" class="edge">
<title>src/main.tsx&#45;&gt;src/app/App.tsx</title>
<path fill="none" stroke="#000000" stroke-width="2" stroke-opacity="0.200000" d="M97.36,-173.66C107.61,-172.36 119.51,-170.85 130.47,-169.46"/>
<polygon fill="#000000" fill-opacity="0.200000" stroke="#000000" stroke-width="2" stroke-opacity="0.200000" points="130.72,-171.54 136.4,-168.71 130.19,-167.38 130.72,-171.54"/>
</g>
<!-- src/main.tsx&#45;&gt;src/index.css -->
<g id="edge12" class="edge">
<title>src/main.tsx&#45;&gt;src/index.css</title>
<path fill="none" stroke="#000000" stroke-width="2" stroke-opacity="0.200000" d="M83.77,-186.35C93.33,-193.73 106.36,-204.65 116,-216 120.39,-221.17 118.69,-224.78 124,-229 126.21,-230.76 128.65,-232.3 131.2,-233.65"/>
<polygon fill="#000000" fill-opacity="0.200000" stroke="#000000" stroke-width="2" stroke-opacity="0.200000" points="130.02,-235.42 136.35,-235.93 131.72,-231.58 130.02,-235.42"/>
</g>
<!-- src/ui/components/TaskForm.tsx&#45;&gt;src/app/context/TaskContext.tsx -->
<g id="edge13" class="edge">
<title>src/ui/components/TaskForm.tsx&#45;&gt;src/app/context/TaskContext.tsx</title>
<path fill="none" stroke="#000000" stroke-width="2" stroke-opacity="0.200000" d="M201.54,-47.21C207.2,-49.33 212.7,-52.18 217.25,-56 246.03,-80.19 261.28,-123.21 267.92,-147.34"/>
<polygon fill="#000000" fill-opacity="0.200000" stroke="#000000" stroke-width="2" stroke-opacity="0.200000" points="265.83,-147.65 269.37,-152.93 269.9,-146.6 265.83,-147.65"/>
</g>
<!-- src/ui/components/TaskList.tsx&#45;&gt;src/app/context/TaskContext.tsx -->
<g id="edge14" class="edge">
<title>src/ui/components/TaskList.tsx&#45;&gt;src/app/context/TaskContext.tsx</title>
<path fill="none" stroke="#000000" stroke-width="2" stroke-opacity="0.200000" d="M178.03,-80.36C196.1,-96.62 233.46,-130.22 255.27,-149.84"/>
<polygon fill="#000000" fill-opacity="0.200000" stroke="#000000" stroke-width="2" stroke-opacity="0.200000" points="253.65,-151.21 259.51,-153.66 256.46,-148.08 253.65,-151.21"/>
</g>
<!-- src/vite&#45;env.d.ts -->
<g id="node12" class="node">
<title>src/vite&#45;env.d.ts</title>
<g id="a_node12"><a xlink:href="src/vite-env.d.ts" xlink:title="vite&#45;env.d.ts">
<path fill="#ccffcc" stroke="black" d="M96.46,-239.88C96.46,-239.88 43.54,-239.88 43.54,-239.88 40.58,-239.88 37.62,-236.92 37.62,-233.96 37.62,-233.96 37.62,-228.04 37.62,-228.04 37.62,-225.08 40.58,-222.12 43.54,-222.12 43.54,-222.12 96.46,-222.12 96.46,-222.12 99.42,-222.12 102.38,-225.08 102.38,-228.04 102.38,-228.04 102.38,-233.96 102.38,-233.96 102.38,-236.92 99.42,-239.88 96.46,-239.88"/>
<text text-anchor="start" x="45.62" y="-227.32" font-family="Helvetica,sans-Serif" font-size="9.00">vite&#45;env.d.ts</text>
</a>
</g>
</g>
</g>
</svg>
