<?xml version="1.0" encoding="UTF-8" standalone="no"?>
<!DOCTYPE svg PUBLIC "-//W3C//DTD SVG 1.1//EN"
 "http://www.w3.org/Graphics/SVG/1.1/DTD/svg11.dtd">
<!-- Generated by graphviz version 12.2.1 (20241206.2353)
 -->
<!-- Title: dependency&#45;cruiser output Pages: 1 -->
<svg width="812pt" height="392pt"
 viewBox="0.00 0.00 812.00 392.00" xmlns="http://www.w3.org/2000/svg" xmlns:xlink="http://www.w3.org/1999/xlink">
<g id="graph0" class="graph" transform="scale(1 1) rotate(0) translate(4 388)">
<title>dependency&#45;cruiser output</title>
<polygon fill="white" stroke="none" points="-4,4 -4,-388 808,-388 808,4 -4,4"/>
<g id="clust1" class="cluster">
<title>cluster_src</title>
<path fill="#ffffff" stroke="black" stroke-width="2" d="M20,-8C20,-8 784,-8 784,-8 790,-8 796,-14 796,-20 796,-20 796,-364 796,-364 796,-370 790,-376 784,-376 784,-376 20,-376 20,-376 14,-376 8,-370 8,-364 8,-364 8,-20 8,-20 8,-14 14,-8 20,-8"/>
<text text-anchor="middle" x="402" y="-363.45" font-family="Helvetica,sans-Serif" font-weight="bold" font-size="9.00">src</text>
</g>
<g id="clust2" class="cluster">
<title>cluster_src/app</title>
<path fill="#ffffff" stroke="black" stroke-width="2" d="M143.62,-140C143.62,-140 424.12,-140 424.12,-140 430.12,-140 436.12,-146 436.12,-152 436.12,-152 436.12,-244 436.12,-244 436.12,-250 430.12,-256 424.12,-256 424.12,-256 143.62,-256 143.62,-256 137.62,-256 131.62,-250 131.62,-244 131.62,-244 131.62,-152 131.62,-152 131.62,-146 137.62,-140 143.62,-140"/>
<text text-anchor="middle" x="283.88" y="-243.45" font-family="Helvetica,sans-Serif" font-weight="bold" font-size="9.00">app</text>
</g>
<g id="clust3" class="cluster">
<title>cluster_src/app/context</title>
<path fill="#ffffff" stroke="black" stroke-width="2" d="M237.25,-148C237.25,-148 416.12,-148 416.12,-148 422.12,-148 428.12,-154 428.12,-160 428.12,-160 428.12,-218 428.12,-218 428.12,-224 422.12,-230 416.12,-230 416.12,-230 237.25,-230 237.25,-230 231.25,-230 225.25,-224 225.25,-218 225.25,-218 225.25,-160 225.25,-160 225.25,-154 231.25,-148 237.25,-148"/>
<text text-anchor="middle" x="326.69" y="-217.45" font-family="Helvetica,sans-Serif" font-weight="bold" font-size="9.00">context</text>
</g>
<g id="clust4" class="cluster">
<title>cluster_src/domain</title>
<path fill="#ffffff" stroke="black" stroke-width="2" d="M456.12,-160C456.12,-160 776,-160 776,-160 782,-160 788,-166 788,-172 788,-172 788,-244 788,-244 788,-250 782,-256 776,-256 776,-256 456.12,-256 456.12,-256 450.12,-256 444.12,-250 444.12,-244 444.12,-244 444.12,-172 444.12,-172 444.12,-166 450.12,-160 456.12,-160"/>
<text text-anchor="middle" x="616.06" y="-243.45" font-family="Helvetica,sans-Serif" font-weight="bold" font-size="9.00">domain</text>
</g>
<g id="clust5" class="cluster">
<title>cluster_src/domain/models</title>
<path fill="#ffffff" stroke="black" stroke-width="2" d="M722,-178C722,-178 768,-178 768,-178 774,-178 780,-184 780,-190 780,-190 780,-218 780,-218 780,-224 774,-230 768,-230 768,-230 722,-230 722,-230 716,-230 710,-224 710,-218 710,-218 710,-190 710,-190 710,-184 716,-178 722,-178"/>
<text text-anchor="middle" x="745" y="-217.45" font-family="Helvetica,sans-Serif" font-weight="bold" font-size="9.00">models</text>
</g>
<g id="clust6" class="cluster">
<title>cluster_src/domain/ports</title>
<path fill="#ffffff" stroke="black" stroke-width="2" d="M610,-178C610,-178 690,-178 690,-178 696,-178 702,-184 702,-190 702,-190 702,-218 702,-218 702,-224 696,-230 690,-230 690,-230 610,-230 610,-230 604,-230 598,-224 598,-218 598,-218 598,-190 598,-190 598,-184 604,-178 610,-178"/>
<text text-anchor="middle" x="650" y="-217.45" font-family="Helvetica,sans-Serif" font-weight="bold" font-size="9.00">ports</text>
</g>
<g id="clust7" class="cluster">
<title>cluster_src/domain/usecases</title>
<path fill="#ffffff" stroke="black" stroke-width="2" d="M464.12,-173C464.12,-173 555.38,-173 555.38,-173 561.38,-173 567.38,-179 567.38,-185 567.38,-185 567.38,-213 567.38,-213 567.38,-219 561.38,-225 555.38,-225 555.38,-225 464.12,-225 464.12,-225 458.12,-225 452.12,-219 452.12,-213 452.12,-213 452.12,-185 452.12,-185 452.12,-179 458.12,-173 464.12,-173"/>
<text text-anchor="middle" x="509.75" y="-212.45" font-family="Helvetica,sans-Serif" font-weight="bold" font-size="9.00">usecases</text>
</g>
<g id="clust8" class="cluster">
<title>cluster_src/infrastructure</title>
<path fill="#ffffff" stroke="black" stroke-width="2" d="M343.5,-264C343.5,-264 578,-264 578,-264 584,-264 590,-270 590,-276 590,-276 590,-338 590,-338 590,-344 584,-350 578,-350 578,-350 343.5,-350 343.5,-350 337.5,-350 331.5,-344 331.5,-338 331.5,-338 331.5,-276 331.5,-276 331.5,-270 337.5,-264 343.5,-264"/>
<text text-anchor="middle" x="460.75" y="-337.45" font-family="Helvetica,sans-Serif" font-weight="bold" font-size="9.00">infrastructure</text>
</g>
<g id="clust9" class="cluster">
<title>cluster_src/infrastructure/repositories</title>
<path fill="#ffffff" stroke="black" stroke-width="2" d="M351.5,-272C351.5,-272 570,-272 570,-272 576,-272 582,-278 582,-284 582,-284 582,-312 582,-312 582,-318 576,-324 570,-324 570,-324 351.5,-324 351.5,-324 345.5,-324 339.5,-318 339.5,-312 339.5,-312 339.5,-284 339.5,-284 339.5,-278 345.5,-272 351.5,-272"/>
<text text-anchor="middle" x="460.75" y="-311.45" font-family="Helvetica,sans-Serif" font-weight="bold" font-size="9.00">repositories</text>
</g>
<g id="clust10" class="cluster">
<title>cluster_src/ui</title>
<path fill="#ffffff" stroke="black" stroke-width="2" d="M28,-16C28,-16 205.25,-16 205.25,-16 211.25,-16 217.25,-22 217.25,-28 217.25,-28 217.25,-120 217.25,-120 217.25,-126 211.25,-132 205.25,-132 205.25,-132 28,-132 28,-132 22,-132 16,-126 16,-120 16,-120 16,-28 16,-28 16,-22 22,-16 28,-16"/>
<text text-anchor="middle" x="116.62" y="-119.45" font-family="Helvetica,sans-Serif" font-weight="bold" font-size="9.00">ui</text>
</g>
<g id="clust11" class="cluster">
<title>cluster_src/ui/components</title>
<path fill="#ffffff" stroke="black" stroke-width="2" d="M136,-24C136,-24 197.25,-24 197.25,-24 203.25,-24 209.25,-30 209.25,-36 209.25,-36 209.25,-94 209.25,-94 209.25,-100 203.25,-106 197.25,-106 197.25,-106 136,-106 136,-106 130,-106 124,-100 124,-94 124,-94 124,-36 124,-36 124,-30 130,-24 136,-24"/>
<text text-anchor="middle" x="166.62" y="-93.45" font-family="Helvetica,sans-Serif" font-weight="bold" font-size="9.00">components</text>
</g>
<g id="clust12" class="cluster">
<title>cluster_src/ui/pages</title>
<path fill="#ffffff" stroke="black" stroke-width="2" d="M36,-54C36,-54 104,-54 104,-54 110,-54 116,-60 116,-66 116,-66 116,-94 116,-94 116,-100 110,-106 104,-106 104,-106 36,-106 36,-106 30,-106 24,-100 24,-94 24,-94 24,-66 24,-66 24,-60 30,-54 36,-54"/>
<text text-anchor="middle" x="70" y="-93.45" font-family="Helvetica,sans-Serif" font-weight="bold" font-size="9.00">pages</text>
</g>
<!-- src/app/App.tsx -->
<g id="node1" class="node">
<title>src/app/App.tsx</title>
<g id="a_node1"><a xlink:href="src/app/App.tsx" xlink:title="App.tsx">
<path fill="#bbfeff" stroke="black" d="M187.71,-203.88C187.71,-203.88 145.54,-203.88 145.54,-203.88 142.58,-203.88 139.62,-200.92 139.62,-197.96 139.62,-197.96 139.62,-192.04 139.62,-192.04 139.62,-189.08 142.58,-186.12 145.54,-186.12 145.54,-186.12 187.71,-186.12 187.71,-186.12 190.67,-186.12 193.62,-189.08 193.62,-192.04 193.62,-192.04 193.62,-197.96 193.62,-197.96 193.62,-200.92 190.67,-203.88 187.71,-203.88"/>
<text text-anchor="start" x="151.62" y="-191.32" font-family="Helvetica,sans-Serif" font-size="9.00">App.tsx</text>
</a>
</g>
</g>
<!-- src/ui/pages/HomePage.tsx -->
<g id="node2" class="node">
<title>src/ui/pages/HomePage.tsx</title>
<g id="a_node2"><a xlink:href="src/ui/pages/HomePage.tsx" xlink:title="HomePage.tsx">
<path fill="#bbfeff" stroke="black" d="M102.08,-79.88C102.08,-79.88 37.92,-79.88 37.92,-79.88 34.96,-79.88 32,-76.92 32,-73.96 32,-73.96 32,-68.04 32,-68.04 32,-65.08 34.96,-62.12 37.92,-62.12 37.92,-62.12 102.08,-62.12 102.08,-62.12 105.04,-62.12 108,-65.08 108,-68.04 108,-68.04 108,-73.96 108,-73.96 108,-76.92 105.04,-79.88 102.08,-79.88"/>
<text text-anchor="start" x="40" y="-67.33" font-family="Helvetica,sans-Serif" font-size="9.00">HomePage.tsx</text>
</a>
</g>
</g>
<!-- src/app/App.tsx&#45;&gt;src/ui/pages/HomePage.tsx -->
<g id="edge1" class="edge">
<title>src/app/App.tsx&#45;&gt;src/ui/pages/HomePage.tsx</title>
<path fill="none" stroke="#000000" stroke-width="2" stroke-opacity="0.200000" d="M160.56,-185.65C152.24,-170.07 135.45,-137.65 124,-109 119.67,-98.17 124.37,-92.13 116,-84 115.86,-83.87 115.72,-83.73 115.58,-83.6"/>
<polygon fill="#000000" fill-opacity="0.200000" stroke="#000000" stroke-width="2" stroke-opacity="0.200000" points="117.06,-82.08 110.96,-80.3 114.62,-85.5 117.06,-82.08"/>
</g>
<!-- src/app/context/TaskProvider.tsx -->
<g id="node3" class="node">
<title>src/app/context/TaskProvider.tsx</title>
<g id="a_node3"><a xlink:href="src/app/context/TaskProvider.tsx" xlink:title="TaskProvider.tsx">
<path fill="#bbfeff" stroke="black" d="M313.83,-203.88C313.83,-203.88 242.92,-203.88 242.92,-203.88 239.96,-203.88 237,-200.92 237,-197.96 237,-197.96 237,-192.04 237,-192.04 237,-189.08 239.96,-186.12 242.92,-186.12 242.92,-186.12 313.83,-186.12 313.83,-186.12 316.79,-186.12 319.75,-189.08 319.75,-192.04 319.75,-192.04 319.75,-197.96 319.75,-197.96 319.75,-200.92 316.79,-203.88 313.83,-203.88"/>
<text text-anchor="start" x="245" y="-191.32" font-family="Helvetica,sans-Serif" font-size="9.00">TaskProvider.tsx</text>
</a>
</g>
</g>
<!-- src/app/App.tsx&#45;&gt;src/app/context/TaskProvider.tsx -->
<g id="edge2" class="edge">
<title>src/app/App.tsx&#45;&gt;src/app/context/TaskProvider.tsx</title>
<path fill="none" stroke="#000000" stroke-width="2" stroke-opacity="0.200000" d="M193.91,-195C204.12,-195 216.16,-195 227.87,-195"/>
<polygon fill="#000000" fill-opacity="0.200000" stroke="#000000" stroke-width="2" stroke-opacity="0.200000" points="227.7,-197.1 233.7,-195 227.7,-192.9 227.7,-197.1"/>
</g>
<!-- src/ui/components/TaskForm.tsx -->
<g id="node13" class="node">
<title>src/ui/components/TaskForm.tsx</title>
<g id="a_node13"><a xlink:href="src/ui/components/TaskForm.tsx" xlink:title="TaskForm.tsx">
<path fill="#bbfeff" stroke="black" d="M195.33,-49.88C195.33,-49.88 137.92,-49.88 137.92,-49.88 134.96,-49.88 132,-46.92 132,-43.96 132,-43.96 132,-38.04 132,-38.04 132,-35.08 134.96,-32.12 137.92,-32.12 137.92,-32.12 195.33,-32.12 195.33,-32.12 198.29,-32.12 201.25,-35.08 201.25,-38.04 201.25,-38.04 201.25,-43.96 201.25,-43.96 201.25,-46.92 198.29,-49.88 195.33,-49.88"/>
<text text-anchor="start" x="140" y="-37.33" font-family="Helvetica,sans-Serif" font-size="9.00">TaskForm.tsx</text>
</a>
</g>
</g>
<!-- src/ui/pages/HomePage.tsx&#45;&gt;src/ui/components/TaskForm.tsx -->
<g id="edge19" class="edge">
<title>src/ui/pages/HomePage.tsx&#45;&gt;src/ui/components/TaskForm.tsx</title>
<path fill="none" stroke="#000000" stroke-width="2" stroke-opacity="0.200000" d="M100.42,-61.67C109.06,-58.93 118.62,-55.9 127.71,-53.02"/>
<polygon fill="#000000" fill-opacity="0.200000" stroke="#000000" stroke-width="2" stroke-opacity="0.200000" points="128.25,-55.05 133.34,-51.24 126.98,-51.05 128.25,-55.05"/>
</g>
<!-- src/ui/components/TaskList.tsx -->
<g id="node14" class="node">
<title>src/ui/components/TaskList.tsx</title>
<g id="a_node14"><a xlink:href="src/ui/components/TaskList.tsx" xlink:title="TaskList.tsx">
<path fill="#bbfeff" stroke="black" d="M191.96,-79.88C191.96,-79.88 141.29,-79.88 141.29,-79.88 138.33,-79.88 135.38,-76.92 135.38,-73.96 135.38,-73.96 135.38,-68.04 135.38,-68.04 135.38,-65.08 138.33,-62.12 141.29,-62.12 141.29,-62.12 191.96,-62.12 191.96,-62.12 194.92,-62.12 197.88,-65.08 197.88,-68.04 197.88,-68.04 197.88,-73.96 197.88,-73.96 197.88,-76.92 194.92,-79.88 191.96,-79.88"/>
<text text-anchor="start" x="143.38" y="-67.33" font-family="Helvetica,sans-Serif" font-size="9.00">TaskList.tsx</text>
</a>
</g>
</g>
<!-- src/ui/pages/HomePage.tsx&#45;&gt;src/ui/components/TaskList.tsx -->
<g id="edge20" class="edge">
<title>src/ui/pages/HomePage.tsx&#45;&gt;src/ui/components/TaskList.tsx</title>
<path fill="none" stroke="#000000" stroke-width="2" stroke-opacity="0.200000" d="M108.4,-71C114.16,-71 120.13,-71 125.94,-71"/>
<polygon fill="#000000" fill-opacity="0.200000" stroke="#000000" stroke-width="2" stroke-opacity="0.200000" points="125.86,-73.1 131.86,-71 125.86,-68.9 125.86,-73.1"/>
</g>
<!-- src/app/context/TaskContext.tsx -->
<g id="node4" class="node">
<title>src/app/context/TaskContext.tsx</title>
<g id="a_node4"><a xlink:href="src/app/context/TaskContext.tsx" xlink:title="TaskContext.tsx">
<path fill="#bbfeff" stroke="black" d="M414.21,-181.88C414.21,-181.88 346.29,-181.88 346.29,-181.88 343.33,-181.88 340.38,-178.92 340.38,-175.96 340.38,-175.96 340.38,-170.04 340.38,-170.04 340.38,-167.08 343.33,-164.12 346.29,-164.12 346.29,-164.12 414.21,-164.12 414.21,-164.12 417.17,-164.12 420.12,-167.08 420.12,-170.04 420.12,-170.04 420.12,-175.96 420.12,-175.96 420.12,-178.92 417.17,-181.88 414.21,-181.88"/>
<text text-anchor="start" x="348.38" y="-169.32" font-family="Helvetica,sans-Serif" font-size="9.00">TaskContext.tsx</text>
</a>
</g>
</g>
<!-- src/app/context/TaskProvider.tsx&#45;&gt;src/app/context/TaskContext.tsx -->
<g id="edge6" class="edge">
<title>src/app/context/TaskProvider.tsx&#45;&gt;src/app/context/TaskContext.tsx</title>
<path fill="none" stroke="#000000" stroke-width="2" stroke-opacity="0.200000" d="M320,-186.05C323.7,-185.24 327.48,-184.4 331.24,-183.57"/>
<polygon fill="#000000" fill-opacity="0.200000" stroke="#000000" stroke-width="2" stroke-opacity="0.200000" points="331.59,-185.65 337,-182.31 330.69,-181.55 331.59,-185.65"/>
</g>
<!-- src/domain/usecases/useTaskUsecases.ts -->
<g id="node5" class="node">
<title>src/domain/usecases/useTaskUsecases.ts</title>
<g id="a_node5"><a xlink:href="src/domain/usecases/useTaskUsecases.ts" xlink:title="useTaskUsecases.ts">
<path fill="#ddfeff" stroke="black" d="M553.46,-198.88C553.46,-198.88 466.04,-198.88 466.04,-198.88 463.08,-198.88 460.12,-195.92 460.12,-192.96 460.12,-192.96 460.12,-187.04 460.12,-187.04 460.12,-184.08 463.08,-181.12 466.04,-181.12 466.04,-181.12 553.46,-181.12 553.46,-181.12 556.42,-181.12 559.38,-184.08 559.38,-187.04 559.38,-187.04 559.38,-192.96 559.38,-192.96 559.38,-195.92 556.42,-198.88 553.46,-198.88"/>
<text text-anchor="start" x="468.12" y="-186.32" font-family="Helvetica,sans-Serif" font-size="9.00">useTaskUsecases.ts</text>
</a>
</g>
</g>
<!-- src/app/context/TaskProvider.tsx&#45;&gt;src/domain/usecases/useTaskUsecases.ts -->
<g id="edge4" class="edge">
<title>src/app/context/TaskProvider.tsx&#45;&gt;src/domain/usecases/useTaskUsecases.ts</title>
<path fill="none" stroke="#000000" stroke-width="2" stroke-opacity="0.200000" d="M320.12,-194.11C356.5,-193.32 410.2,-192.15 451,-191.26"/>
<polygon fill="#000000" fill-opacity="0.200000" stroke="#000000" stroke-width="2" stroke-opacity="0.200000" points="451.05,-193.36 457,-191.13 450.96,-189.16 451.05,-193.36"/>
</g>
<!-- src/infrastructure/repositories/repository.ts -->
<g id="node6" class="node">
<title>src/infrastructure/repositories/repository.ts</title>
<g id="a_node6"><a xlink:href="src/infrastructure/repositories/repository.ts" xlink:title="repository.ts">
<path fill="#ddfeff" stroke="black" d="M407.08,-297.88C407.08,-297.88 353.42,-297.88 353.42,-297.88 350.46,-297.88 347.5,-294.92 347.5,-291.96 347.5,-291.96 347.5,-286.04 347.5,-286.04 347.5,-283.08 350.46,-280.12 353.42,-280.12 353.42,-280.12 407.08,-280.12 407.08,-280.12 410.04,-280.12 413,-283.08 413,-286.04 413,-286.04 413,-291.96 413,-291.96 413,-294.92 410.04,-297.88 407.08,-297.88"/>
<text text-anchor="start" x="355.5" y="-285.32" font-family="Helvetica,sans-Serif" font-size="9.00">repository.ts</text>
</a>
</g>
</g>
<!-- src/app/context/TaskProvider.tsx&#45;&gt;src/infrastructure/repositories/repository.ts -->
<g id="edge5" class="edge">
<title>src/app/context/TaskProvider.tsx&#45;&gt;src/infrastructure/repositories/repository.ts</title>
<path fill="none" stroke="#000000" stroke-width="2" stroke-opacity="0.200000" d="M289.32,-204.36C306.52,-220.54 341.98,-253.93 362.87,-273.58"/>
<polygon fill="#000000" fill-opacity="0.200000" stroke="#000000" stroke-width="2" stroke-opacity="0.200000" points="361.34,-275.02 367.14,-277.61 364.21,-271.97 361.34,-275.02"/>
</g>
<!-- src/app/context/TaskContext.tsx&#45;&gt;src/domain/usecases/useTaskUsecases.ts -->
<g id="edge3" class="edge">
<title>src/app/context/TaskContext.tsx&#45;&gt;src/domain/usecases/useTaskUsecases.ts</title>
<path fill="none" stroke="#000000" stroke-width="2" stroke-opacity="0.200000" d="M420.54,-178.24C430.26,-179.53 440.87,-180.95 451.26,-182.33"/>
<polygon fill="#000000" fill-opacity="0.200000" stroke="#000000" stroke-width="2" stroke-opacity="0.200000" points="450.68,-184.38 456.91,-183.09 451.24,-180.21 450.68,-184.38"/>
</g>
<!-- src/domain/models/Task.ts -->
<g id="node8" class="node">
<title>src/domain/models/Task.ts</title>
<g id="a_node8"><a xlink:href="src/domain/models/Task.ts" xlink:title="Task.ts">
<path fill="#ddfeff" stroke="black" d="M766.08,-203.88C766.08,-203.88 723.92,-203.88 723.92,-203.88 720.96,-203.88 718,-200.92 718,-197.96 718,-197.96 718,-192.04 718,-192.04 718,-189.08 720.96,-186.12 723.92,-186.12 723.92,-186.12 766.08,-186.12 766.08,-186.12 769.04,-186.12 772,-189.08 772,-192.04 772,-192.04 772,-197.96 772,-197.96 772,-200.92 769.04,-203.88 766.08,-203.88"/>
<text text-anchor="start" x="731.12" y="-191.32" font-family="Helvetica,sans-Serif" font-size="9.00">Task.ts</text>
</a>
</g>
</g>
<!-- src/domain/usecases/useTaskUsecases.ts&#45;&gt;src/domain/models/Task.ts -->
<g id="edge9" class="edge">
<title>src/domain/usecases/useTaskUsecases.ts&#45;&gt;src/domain/models/Task.ts</title>
<path fill="none" stroke="#000000" stroke-width="2" stroke-opacity="0.200000" d="M547.52,-180.69C586.38,-172.33 649.21,-163.07 702,-175 708.39,-176.44 714.95,-178.98 720.93,-181.77"/>
<polygon fill="#000000" fill-opacity="0.200000" stroke="#000000" stroke-width="2" stroke-opacity="0.200000" points="719.64,-183.48 725.94,-184.3 721.53,-179.73 719.64,-183.48"/>
</g>
<!-- src/domain/ports/TaskRepository.ts -->
<g id="node9" class="node">
<title>src/domain/ports/TaskRepository.ts</title>
<g id="a_node9"><a xlink:href="src/domain/ports/TaskRepository.ts" xlink:title="TaskRepository.ts">
<path fill="#ddfeff" stroke="black" d="M688.08,-203.88C688.08,-203.88 611.92,-203.88 611.92,-203.88 608.96,-203.88 606,-200.92 606,-197.96 606,-197.96 606,-192.04 606,-192.04 606,-189.08 608.96,-186.12 611.92,-186.12 611.92,-186.12 688.08,-186.12 688.08,-186.12 691.04,-186.12 694,-189.08 694,-192.04 694,-192.04 694,-197.96 694,-197.96 694,-200.92 691.04,-203.88 688.08,-203.88"/>
<text text-anchor="start" x="614" y="-191.32" font-family="Helvetica,sans-Serif" font-size="9.00">TaskRepository.ts</text>
</a>
</g>
</g>
<!-- src/domain/usecases/useTaskUsecases.ts&#45;&gt;src/domain/ports/TaskRepository.ts -->
<g id="edge10" class="edge">
<title>src/domain/usecases/useTaskUsecases.ts&#45;&gt;src/domain/ports/TaskRepository.ts</title>
<path fill="none" stroke="#000000" stroke-width="2" stroke-opacity="0.200000" d="M559.49,-191.76C571.63,-192.2 584.68,-192.67 596.97,-193.12"/>
<polygon fill="#000000" fill-opacity="0.200000" stroke="#000000" stroke-width="2" stroke-opacity="0.200000" points="596.66,-195.21 602.73,-193.33 596.81,-191.01 596.66,-195.21"/>
</g>
<!-- src/infrastructure/repositories/repository.ts&#45;&gt;src/domain/ports/TaskRepository.ts -->
<g id="edge13" class="edge">
<title>src/infrastructure/repositories/repository.ts&#45;&gt;src/domain/ports/TaskRepository.ts</title>
<path fill="none" stroke="#000000" stroke-width="2" stroke-opacity="0.200000" d="M413.49,-280.54C463.63,-267.21 557.88,-241.47 590,-228 602.59,-222.72 615.92,-215.42 626.72,-209.03"/>
<polygon fill="#000000" fill-opacity="0.200000" stroke="#000000" stroke-width="2" stroke-opacity="0.200000" points="627.8,-210.84 631.84,-205.94 625.62,-207.24 627.8,-210.84"/>
</g>
<!-- src/infrastructure/repositories/InMemoryTaskRepository.ts -->
<g id="node11" class="node">
<title>src/infrastructure/repositories/InMemoryTaskRepository.ts</title>
<g id="a_node11"><a xlink:href="src/infrastructure/repositories/InMemoryTaskRepository.ts" xlink:title="InMemoryTaskRepository.ts">
<path fill="#ddfeff" stroke="black" d="M568.08,-297.88C568.08,-297.88 451.42,-297.88 451.42,-297.88 448.46,-297.88 445.5,-294.92 445.5,-291.96 445.5,-291.96 445.5,-286.04 445.5,-286.04 445.5,-283.08 448.46,-280.12 451.42,-280.12 451.42,-280.12 568.08,-280.12 568.08,-280.12 571.04,-280.12 574,-283.08 574,-286.04 574,-286.04 574,-291.96 574,-291.96 574,-294.92 571.04,-297.88 568.08,-297.88"/>
<text text-anchor="start" x="453.5" y="-285.32" font-family="Helvetica,sans-Serif" font-size="9.00">InMemoryTaskRepository.ts</text>
</a>
</g>
</g>
<!-- src/infrastructure/repositories/repository.ts&#45;&gt;src/infrastructure/repositories/InMemoryTaskRepository.ts -->
<g id="edge14" class="edge">
<title>src/infrastructure/repositories/repository.ts&#45;&gt;src/infrastructure/repositories/InMemoryTaskRepository.ts</title>
<path fill="none" stroke="#000000" stroke-width="2" stroke-opacity="0.200000" d="M413.42,-289C420.45,-289 428.15,-289 436.04,-289"/>
<polygon fill="#000000" fill-opacity="0.200000" stroke="#000000" stroke-width="2" stroke-opacity="0.200000" points="435.98,-291.1 441.98,-289 435.98,-286.9 435.98,-291.1"/>
</g>
<!-- src/app/context/useTaskContext.ts -->
<g id="node7" class="node">
<title>src/app/context/useTaskContext.ts</title>
<g id="a_node7"><a xlink:href="src/app/context/useTaskContext.ts" xlink:title="useTaskContext.ts">
<path fill="#ddfeff" stroke="black" d="M317.58,-173.88C317.58,-173.88 239.17,-173.88 239.17,-173.88 236.21,-173.88 233.25,-170.92 233.25,-167.96 233.25,-167.96 233.25,-162.04 233.25,-162.04 233.25,-159.08 236.21,-156.12 239.17,-156.12 239.17,-156.12 317.58,-156.12 317.58,-156.12 320.54,-156.12 323.5,-159.08 323.5,-162.04 323.5,-162.04 323.5,-167.96 323.5,-167.96 323.5,-170.92 320.54,-173.88 317.58,-173.88"/>
<text text-anchor="start" x="241.25" y="-161.32" font-family="Helvetica,sans-Serif" font-size="9.00">useTaskContext.ts</text>
</a>
</g>
</g>
<!-- src/app/context/useTaskContext.ts&#45;&gt;src/app/context/TaskContext.tsx -->
<g id="edge7" class="edge">
<title>src/app/context/useTaskContext.ts&#45;&gt;src/app/context/TaskContext.tsx</title>
<path fill="none" stroke="#000000" stroke-width="2" stroke-opacity="0.200000" d="M323.76,-168.56C326.22,-168.75 328.69,-168.95 331.16,-169.15"/>
<polygon fill="#000000" fill-opacity="0.200000" stroke="#000000" stroke-width="2" stroke-opacity="0.200000" points="330.86,-171.23 337.01,-169.62 331.19,-167.04 330.86,-171.23"/>
</g>
<!-- src/domain/ports/TaskRepository.ts&#45;&gt;src/domain/models/Task.ts -->
<g id="edge8" class="edge">
<title>src/domain/ports/TaskRepository.ts&#45;&gt;src/domain/models/Task.ts</title>
<path fill="none" stroke="#000000" stroke-width="2" stroke-opacity="0.200000" d="M694.23,-195C699.09,-195 703.99,-195 708.73,-195"/>
<polygon fill="#000000" fill-opacity="0.200000" stroke="#000000" stroke-width="2" stroke-opacity="0.200000" points="708.56,-197.1 714.56,-195 708.56,-192.9 708.56,-197.1"/>
</g>
<!-- src/index.css -->
<g id="node10" class="node">
<title>src/index.css</title>
<g id="a_node10"><a xlink:href="src/index.css" xlink:title="index.css">
<path fill="#ffffcc" stroke="black" d="M187.83,-281.88C187.83,-281.88 145.42,-281.88 145.42,-281.88 142.46,-281.88 139.5,-278.92 139.5,-275.96 139.5,-275.96 139.5,-270.04 139.5,-270.04 139.5,-267.08 142.46,-264.12 145.42,-264.12 145.42,-264.12 187.83,-264.12 187.83,-264.12 190.79,-264.12 193.75,-267.08 193.75,-270.04 193.75,-270.04 193.75,-275.96 193.75,-275.96 193.75,-278.92 190.79,-281.88 187.83,-281.88"/>
<text text-anchor="start" x="147.5" y="-269.32" font-family="Helvetica,sans-Serif" font-size="9.00">index.css</text>
</a>
</g>
</g>
<!-- src/infrastructure/repositories/InMemoryTaskRepository.ts&#45;&gt;src/domain/models/Task.ts -->
<g id="edge11" class="edge">
<title>src/infrastructure/repositories/InMemoryTaskRepository.ts&#45;&gt;src/domain/models/Task.ts</title>
<path fill="none" stroke="#000000" stroke-width="2" stroke-opacity="0.200000" d="M566.09,-279.67C605.74,-271.39 659.43,-256.82 702,-233 712.59,-227.07 722.73,-218.03 730.4,-210.25"/>
<polygon fill="#000000" fill-opacity="0.200000" stroke="#000000" stroke-width="2" stroke-opacity="0.200000" points="731.53,-212.11 734.13,-206.31 728.48,-209.22 731.53,-212.11"/>
</g>
<!-- src/infrastructure/repositories/InMemoryTaskRepository.ts&#45;&gt;src/domain/ports/TaskRepository.ts -->
<g id="edge12" class="edge">
<title>src/infrastructure/repositories/InMemoryTaskRepository.ts&#45;&gt;src/domain/ports/TaskRepository.ts</title>
<path fill="none" stroke="#000000" stroke-width="2" stroke-opacity="0.200000" d="M538.46,-279.66C554.3,-273.63 574.12,-264.88 590,-254 607.95,-241.7 625.14,-223.53 636.29,-210.6"/>
<polygon fill="#000000" fill-opacity="0.200000" stroke="#000000" stroke-width="2" stroke-opacity="0.200000" points="637.62,-212.29 639.88,-206.35 634.41,-209.58 637.62,-212.29"/>
</g>
<!-- src/main.tsx -->
<g id="node12" class="node">
<title>src/main.tsx</title>
<g id="a_node12"><a xlink:href="src/main.tsx" xlink:title="main.tsx">
<path fill="#bbfeff" stroke="black" d="M91.08,-232.88C91.08,-232.88 48.92,-232.88 48.92,-232.88 45.96,-232.88 43,-229.92 43,-226.96 43,-226.96 43,-221.04 43,-221.04 43,-218.08 45.96,-215.12 48.92,-215.12 48.92,-215.12 91.08,-215.12 91.08,-215.12 94.04,-215.12 97,-218.08 97,-221.04 97,-221.04 97,-226.96 97,-226.96 97,-229.92 94.04,-232.88 91.08,-232.88"/>
<text text-anchor="start" x="53.12" y="-220.32" font-family="Helvetica,sans-Serif" font-size="9.00">main.tsx</text>
</a>
</g>
</g>
<!-- src/main.tsx&#45;&gt;src/app/App.tsx -->
<g id="edge15" class="edge">
<title>src/main.tsx&#45;&gt;src/app/App.tsx</title>
<path fill="none" stroke="#000000" stroke-width="2" stroke-opacity="0.200000" d="M97.36,-215.92C107.71,-212.75 119.75,-209.06 130.8,-205.67"/>
<polygon fill="#000000" fill-opacity="0.200000" stroke="#000000" stroke-width="2" stroke-opacity="0.200000" points="131.39,-207.69 136.51,-203.92 130.16,-203.67 131.39,-207.69"/>
</g>
<!-- src/main.tsx&#45;&gt;src/index.css -->
<g id="edge16" class="edge">
<title>src/main.tsx&#45;&gt;src/index.css</title>
<path fill="none" stroke="#000000" stroke-width="2" stroke-opacity="0.200000" d="M83.09,-233.3C93.49,-240.98 109.14,-251.75 124,-259 126.25,-260.1 128.6,-261.14 131,-262.13"/>
<polygon fill="#000000" fill-opacity="0.200000" stroke="#000000" stroke-width="2" stroke-opacity="0.200000" points="130.05,-264.02 136.4,-264.2 131.55,-260.09 130.05,-264.02"/>
</g>
<!-- src/ui/components/TaskForm.tsx&#45;&gt;src/app/context/useTaskContext.ts -->
<g id="edge17" class="edge">
<title>src/ui/components/TaskForm.tsx&#45;&gt;src/app/context/useTaskContext.ts</title>
<path fill="none" stroke="#000000" stroke-width="2" stroke-opacity="0.200000" d="M201.68,-47.45C207.26,-49.54 212.7,-52.32 217.25,-56 247.07,-80.12 264.44,-123.17 272.29,-147.32"/>
<polygon fill="#000000" fill-opacity="0.200000" stroke="#000000" stroke-width="2" stroke-opacity="0.200000" points="270.25,-147.84 274.03,-152.96 274.26,-146.61 270.25,-147.84"/>
</g>
<!-- src/ui/components/TaskList.tsx&#45;&gt;src/app/context/useTaskContext.ts -->
<g id="edge18" class="edge">
<title>src/ui/components/TaskList.tsx&#45;&gt;src/app/context/useTaskContext.ts</title>
<path fill="none" stroke="#000000" stroke-width="2" stroke-opacity="0.200000" d="M178.55,-80.36C197.53,-96.62 236.76,-130.22 259.68,-149.84"/>
<polygon fill="#000000" fill-opacity="0.200000" stroke="#000000" stroke-width="2" stroke-opacity="0.200000" points="258.27,-151.4 264.2,-153.71 261,-148.21 258.27,-151.4"/>
</g>
<!-- src/vite&#45;env.d.ts -->
<g id="node15" class="node">
<title>src/vite&#45;env.d.ts</title>
<g id="a_node15"><a xlink:href="src/vite-env.d.ts" xlink:title="vite&#45;env.d.ts">
<path fill="#ccffcc" stroke="black" d="M96.46,-320.88C96.46,-320.88 43.54,-320.88 43.54,-320.88 40.58,-320.88 37.62,-317.92 37.62,-314.96 37.62,-314.96 37.62,-309.04 37.62,-309.04 37.62,-306.08 40.58,-303.12 43.54,-303.12 43.54,-303.12 96.46,-303.12 96.46,-303.12 99.42,-303.12 102.38,-306.08 102.38,-309.04 102.38,-309.04 102.38,-314.96 102.38,-314.96 102.38,-317.92 99.42,-320.88 96.46,-320.88"/>
<text text-anchor="start" x="45.62" y="-308.32" font-family="Helvetica,sans-Serif" font-size="9.00">vite&#45;env.d.ts</text>
</a>
</g>
</g>
</g>
</svg>
